<?xml version="1.0" encoding="UTF-8" standalone="no"?><!DOCTYPE svg PUBLIC "-//W3C//DTD SVG 1.1//EN" "http://www.w3.org/Graphics/SVG/1.1/DTD/svg11.dtd"><svg width="100%" height="100%" viewBox="0 0 209 167" version="1.1" xmlns="http://www.w3.org/2000/svg" xmlns:xlink="http://www.w3.org/1999/xlink" xml:space="preserve" xmlns:serif="http://www.serif.com/" style="fill-rule:evenodd;clip-rule:evenodd;stroke-linejoin:round;stroke-miterlimit:2;"><g><path d="M150.854,130.714c0.109,-1.081 -1.469,-1.143 -1.648,-0.109c-1.019,5.784 -1.166,11.623 -0.645,17.469c0.093,1.019 1.866,0.918 1.819,-0.116c-0.295,-5.784 -0.086,-11.491 0.474,-17.244Z" style="fill:#002265;fill-rule:nonzero;stroke:#002265;stroke-width:2px;"/><path d="M149.564,140.393c-1.268,-0.062 -2.737,0.156 -3.965,-0.07c-0.996,-0.186 -1.307,-0.039 -1.641,-1.283c-0.202,-0.73 -0.046,-1.71 -0.054,-2.456c-0.023,-2.798 0.062,-5.582 0.225,-8.366c0.062,-1.166 -1.749,-1.29 -1.819,-0.124c-0.132,2.294 -0.218,4.587 -0.233,6.888c-0.016,1.618 -0.397,4.097 0.124,5.668c0.887,2.69 5.396,1.461 7.456,1.283c0.886,-0.078 0.77,-1.493 -0.093,-1.54Z" style="fill:#002265;fill-rule:nonzero;stroke:#002265;stroke-width:2px;"/><path d="M162.026,142.205c-8.466,7.245 -6.352,-13.847 -0.311,-9.042c0.459,0.365 1.057,-0.023 1.19,-0.498c2.899,2.341 2.184,6.912 -0.879,9.54Zm-0.902,-12.346c-0.575,-0.078 -0.909,0.42 -0.909,0.91c-5.404,-0.529 -9.159,12.82 -2.022,14.584c3.911,0.972 7.681,-3.591 8.412,-6.997c0.809,-3.793 -1.469,-7.975 -5.481,-8.497Z" style="fill:#002265;fill-rule:nonzero;stroke:#002265;stroke-width:2px;"/><path d="M176.098,138.349c-1.812,0.031 -3.631,0.077 -5.442,0.155c0.241,-4.486 0.559,-8.972 0.629,-13.457c0.016,-0.987 -1.415,-1.089 -1.523,-0.101c-0.552,4.827 -0.817,9.694 -1.19,14.538c-0.039,0.528 0.397,1.065 0.941,1.08c2.153,0.039 4.291,0.031 6.437,0.008c1.431,-0.016 1.586,-2.247 0.148,-2.223Z" style="fill:#002265;fill-rule:nonzero;stroke:#002265;stroke-width:2px;"/><path d="M177.264,132.44c-0.132,-0.871 -1.578,-0.809 -1.563,0.101c0.055,3.81 0.094,7.58 -0.155,11.382c-0.078,1.29 1.912,1.43 2.006,0.132c0.295,-3.848 0.279,-7.79 -0.288,-11.615Z" style="fill:#002265;fill-rule:nonzero;stroke:#002265;stroke-width:2px;"/><path d="M185.606,146.737l-0.07,0l-0.008,0.008l0.078,-0.008Z" style="fill:#002265;fill-rule:nonzero;stroke:#002265;stroke-width:2px;"/><path d="M185.497,146.745l0.031,-0c-0.078,-0 -0.093,-0 -0.031,-0Z" style="fill:#002265;fill-rule:nonzero;stroke:#002265;stroke-width:2px;"/><path d="M185.334,145.011l-0.008,0.008l0.008,-0.008Z" style="fill:#002265;fill-rule:nonzero;stroke:#002265;stroke-width:2px;"/><path d="M185.901,143.41c-0.287,-0.109 -0.598,-0.016 -0.816,0.186c-0.762,0.202 -1.213,0.894 -1.081,1.742c0.047,0.326 0.21,0.661 0.428,0.909c0.101,0.125 0.233,0.234 0.373,0.319c0.163,0.101 0.358,0.171 0.552,0.187l0.179,-0.016c1.835,-0.093 1.982,-2.729 0.365,-3.327Z" style="fill:#002265;fill-rule:nonzero;stroke:#002265;stroke-width:2px;"/><path d="M185.303,144.871l0.007,0.024l-0.007,-0.024Z" style="fill:#002265;fill-rule:nonzero;stroke:#002265;stroke-width:2px;"/><path d="M192.611,144.498c-0.008,-0.124 -0.039,-0.249 -0.109,-0.365l0.015,0.093c-0.132,-0.459 -0.536,-0.972 -1.073,-0.948c-0.513,0.023 -0.979,0.155 -1.298,0.583c-0.303,0.404 -0.373,0.948 -0.163,1.407c0.404,0.902 1.57,1.127 2.317,0.513c0.451,-0.381 0.497,-0.879 0.311,-1.283Z" style="fill:#002265;fill-rule:nonzero;stroke:#002265;stroke-width:2px;"/><path d="M198.309,145.003c-0.396,-0.466 -1.15,-0.536 -1.625,-0.124c-0.171,0.148 -0.334,0.303 -0.52,0.428c-0.591,0.412 -0.498,1.345 -0.016,1.78c0.56,0.505 1.298,0.342 1.765,-0.202c0.07,-0.086 0.186,-0.179 0.272,-0.257c0.451,-0.427 0.544,-1.135 0.124,-1.625Z" style="fill:#002265;fill-rule:nonzero;stroke:#002265;stroke-width:2px;"/><path d="M129.436,159.402c0.388,0.933 1.757,0.248 1.399,-0.677c-5.022,-13.185 -2.62,-28.205 -1.843,-41.935c0.07,-1.158 -1.733,-1.283 -1.795,-0.117c-0.801,13.971 -3.351,29.427 2.239,42.729Z" style="fill:#002265;fill-rule:nonzero;stroke:#002265;stroke-width:2px;"/><path d="M200.307,112.491c4.338,16.108 5.474,32.287 4.237,48.885c-0.077,0.996 1.4,1.073 1.54,0.101c2.254,-16.388 0.653,-33.484 -3.849,-49.359c-0.342,-1.205 -2.262,-0.856 -1.928,0.373Z" style="fill:#002265;fill-rule:nonzero;stroke:#002265;stroke-width:2px;"/><path d="M131.885,161.431c24.24,2.231 48.667,2.441 72.955,0.575c1.174,-0.085 0.801,-1.873 -0.358,-1.796c-24.163,1.625 -48.349,1.54 -72.496,-0.311c-0.988,-0.07 -1.089,1.439 -0.101,1.532Z" style="fill:#002265;fill-rule:nonzero;stroke:#002265;stroke-width:2px;"/><path d="M145.536,93.716c8.653,4.664 17.718,9.057 21.847,18.612c0.451,1.026 1.943,0.272 1.555,-0.755c-3.732,-9.896 -13.349,-15.42 -22.484,-19.665c-1.034,-0.481 -1.928,1.26 -0.918,1.808Z" style="fill:#002265;fill-rule:nonzero;stroke:#002265;stroke-width:2px;"/><path d="M146.423,94.751c4.478,5.456 6.624,11.684 6.787,18.719c0.023,1.112 1.71,1.268 1.757,0.117c0.303,-7.37 -2.317,-14.488 -7.044,-20.112c-0.816,-0.971 -2.301,0.299 -1.5,1.276Z" style="fill:#002265;fill-rule:nonzero;stroke:#002265;stroke-width:2px;"/><path d="M128.915,115.445c7.93,-1.531 15.836,-2.402 23.914,-1.741c1.127,0.085 1.516,-1.625 0.365,-1.757c-8.264,-0.949 -16.621,-0.63 -24.629,1.764c-0.941,0.288 -0.661,1.928 0.35,1.734Z" style="fill:#002265;fill-rule:nonzero;stroke:#002265;stroke-width:2px;"/><path d="M168.93,112.701c5.333,0.116 10.69,-0.241 16.023,-0.35c2.511,-0.047 5.022,-0.07 7.533,-0.031c2.55,0.031 5.816,-0.327 8.14,0.886c1.034,0.544 1.695,-1.151 0.669,-1.687c-2.022,-1.057 -4.338,-0.902 -6.562,-0.964c-2.97,-0.086 -5.94,-0.078 -8.902,-0.023c-5.628,0.093 -11.327,0.14 -16.94,0.614c-0.871,0.078 -0.855,1.539 0.039,1.555Z" style="fill:#002265;fill-rule:nonzero;stroke:#002265;stroke-width:2px;"/><path d="M118.365,22.587c-8.451,-10.091 -21.31,-19.222 -34.527,-21.222c-13.729,-2.078 -26.324,5.037 -36.883,13.043c-8.343,6.327 -20.505,18.35 -8.766,27.646c6.648,5.264 14.793,9.132 22.124,13.356c8.334,4.798 16.715,9.524 25.22,14.005c0.918,0.484 1.781,-0.858 0.863,-1.383c-11.762,-6.717 -23.58,-13.328 -35.28,-20.157c-4.735,-2.766 -12.45,-5.72 -15.089,-10.871c-3.349,-6.54 3.402,-13.674 7.933,-17.629c9.302,-8.122 21.197,-16.018 33.923,-16.457c12.743,-0.439 24.521,7.169 33.633,15.389c9.71,8.767 18.324,23.796 8.738,35.898c-0.762,0.961 0.863,1.96 1.617,1.01c7.977,-10.053 4.035,-23.627 -3.506,-32.628Z" style="fill:#002265;fill-rule:nonzero;stroke:#002265;stroke-width:2px;"/><path d="M127.337,99.639c-7.106,10.302 -20.603,16.887 -32.482,10.31c-0.404,-0.226 -0.793,-0.078 -1.019,0.202c-7.37,-4.751 -10.829,-14.386 -9.096,-22.993c2.107,-10.446 10.177,-18.83 19.172,-23.982c9.609,-5.497 25.197,-7.151 30.313,5.297c4.066,9.905 -1.198,22.914 -6.888,31.166Zm9.686,-28.825c-2.759,-12.768 -16.917,-16.162 -27.894,-12.213c-11.226,4.035 -21.901,13.502 -25.555,25.061c-3.584,11.357 1.205,25.54 13.123,29.544c0.319,0.109 0.56,0.008 0.716,-0.179c9.78,3.926 21.146,-0.342 28.182,-8.007c7.767,-8.46 13.94,-22.586 11.428,-34.206Z" style="fill:#002265;fill-rule:nonzero;stroke:#002265;stroke-width:2px;"/><path d="M126.264,95.123c-2.822,4.228 -6.679,8.489 -11.025,11.016c-4.454,2.605 -11.583,3.234 -16.411,1.104c-2.659,-1.166 -4.883,-4.789 -5.792,-7.449c-1.058,-3.125 -0.817,-6.45 0.101,-9.581c1.446,-4.948 4.493,-9.56 7.549,-13.58c3.366,-4.431 7.658,-8.408 12.913,-10.096c2.62,-0.84 5.621,-1.09 8.396,-0.517c0.094,0.164 0.249,0.296 0.482,0.351c2.341,0.55 4.136,1.549 5.497,2.857c0.505,0.536 0.956,1.138 1.345,1.813c0.093,0.154 0.21,0.241 0.326,0.296c3.911,6.549 0.856,17.444 -3.381,23.786Zm-0.622,-30.147c-5.715,-2.845 -14.165,-0.573 -18.962,2.858c-4.144,2.963 -7.394,7.016 -10.208,11.322c-2.993,4.583 -5.761,9.648 -6.119,15.311c-0.318,5.194 1.664,9.892 5.24,13.476c3.172,3.172 9.921,3.211 13.994,2.674c9.656,-1.259 18.014,-11.227 21.683,-20.116c3.219,-7.778 3.88,-22.911 -5.628,-25.525Z" style="fill:#002265;fill-rule:nonzero;stroke:#002265;stroke-width:2px;"/><path d="M87.975,112.623c-0.731,0.645 -1.291,1.555 -1.89,2.332c-0.552,0.723 -1.244,1.423 -1.563,2.286c-0.225,0.591 0.599,1.166 1.097,0.809c0.77,-0.545 1.283,-1.454 1.85,-2.193c0.568,-0.746 1.283,-1.508 1.695,-2.356c0.373,-0.769 -0.552,-1.43 -1.189,-0.878Z" style="fill:#002265;fill-rule:nonzero;stroke:#002265;stroke-width:2px;"/><path d="M89.366,112.467c-3.553,-1.904 -8.964,-2.62 -12.556,-0.365c-3.832,2.41 -5.768,7.751 -7.845,11.522c-0.52,0.933 0.841,1.936 1.361,0.987c1.671,-3.032 3.149,-6.468 5.334,-9.181c3.203,-3.981 8.933,-3.468 13.17,-1.524c0.917,0.412 1.376,-0.98 0.536,-1.439Z" style="fill:#002265;fill-rule:nonzero;stroke:#002265;stroke-width:2px;"/><path d="M81.358,130.007c-2.659,-0.303 -11.63,-1.671 -10.814,-5.909c0.156,-0.84 -1.119,-1.081 -1.415,-0.334c-2.371,5.877 8.288,7.914 12.043,8.093c1.189,0.054 1.384,-1.718 0.186,-1.85Z" style="fill:#002265;fill-rule:nonzero;stroke:#002265;stroke-width:2px;"/><path d="M83.582,128.623c-0.32,-0.995 -1.151,-1.625 -2.061,-2.06c-1.531,-0.731 -3.118,-1.213 -4.609,-2.045c-0.926,-0.521 -1.922,0.817 -0.98,1.353c0.948,0.544 1.928,1.034 2.946,1.438c0.514,0.21 1.05,0.366 1.562,0.575c0.359,0.125 0.709,0.288 1.027,0.506c0.786,0.474 0.77,0.979 -0.023,1.516c-0.855,-0.101 -1.228,1.298 -0.35,1.508c1.695,0.396 3.039,-1.112 2.488,-2.791Z" style="fill:#002265;fill-rule:nonzero;stroke:#002265;stroke-width:2px;"/><path d="M88.604,126.477c0.265,-1.283 -0.521,-2.402 -1.586,-3.032c-1.088,-0.645 -2.433,-0.831 -3.623,-1.236c-1.36,-0.474 -2.604,-1.089 -3.755,-1.952c-0.863,-0.645 -1.85,0.716 -0.987,1.353c1.664,1.236 3.498,1.99 5.48,2.559c0.413,0.123 0.972,0.178 1.346,0.396c0.948,0.217 1.182,1.033 0.707,2.441c-0.45,0.062 -0.901,0.124 -1.352,0.179c-1.205,-0.024 -2.426,-0.482 -3.491,-1.011c-0.692,-0.349 -1.337,0.832 -0.645,1.213c2.122,1.181 7.16,2.829 7.906,-0.91Z" style="fill:#002265;fill-rule:nonzero;stroke:#002265;stroke-width:2px;"/><path d="M91.667,120.421c-0.311,-1.369 -1.477,-1.858 -2.713,-2.224c-2.457,-0.738 -5.015,-1.314 -6.911,-3.164c-0.77,-0.746 -2.099,0.295 -1.322,1.057c1.508,1.47 3.234,2.325 5.232,2.962c0.933,0.288 2.224,0.366 3.04,0.879c1.804,1.128 0.428,2.395 -0.84,2.62c-0.746,0.14 -1.586,0.023 -2.332,-0.086c-0.886,-0.116 -0.996,1.214 -0.133,1.369c2.294,0.42 6.78,0.163 5.979,-3.413Z" style="fill:#002265;fill-rule:nonzero;stroke:#002265;stroke-width:2px;"/><path d="M95.166,111.589c-0.918,1.073 -1.726,2.247 -2.542,3.397c-0.879,1.229 -1.897,2.442 -2.597,3.779c-0.373,0.723 0.552,1.648 1.19,0.972c0.956,-1.027 1.71,-2.271 2.518,-3.421c0.879,-1.244 1.796,-2.48 2.558,-3.802c0.389,-0.684 -0.56,-1.578 -1.127,-0.925Z" style="fill:#002265;fill-rule:nonzero;stroke:#002265;stroke-width:2px;"/><path d="M90.898,109.117c-1.345,1.174 -2.488,2.62 -3.281,4.229c-0.451,0.925 0.878,1.788 1.376,0.863c0.793,-1.493 1.749,-2.799 2.97,-3.965c0.723,-0.692 -0.311,-1.78 -1.065,-1.127Z" style="fill:#002265;fill-rule:nonzero;stroke:#002265;stroke-width:2px;"/><path d="M71.127,136.522c1.376,-2.014 2.806,-4.003 4.066,-6.096c0.497,-0.831 -0.677,-1.507 -1.244,-0.777c-1.601,2.052 -3.04,4.246 -4.516,6.391c-1.003,1.446 -2.535,3.164 -2.551,5.045c-0.015,2.706 2.83,3.996 5.108,3.079c0.684,-0.272 0.396,-1.501 -0.35,-1.423c-2.27,0.233 -3.576,-1.329 -2.364,-3.498c0.537,-0.949 1.237,-1.827 1.851,-2.721Z" style="fill:#002265;fill-rule:nonzero;stroke:#002265;stroke-width:2px;"/><path d="M79.936,131.344c-2.613,3.724 -5.046,9.01 -9.19,11.187c-0.785,0.412 -0.295,1.594 0.545,1.415c2.114,-0.435 3.467,-2.045 4.695,-3.716c1.905,-2.581 3.639,-5.302 5.295,-8.047c0.536,-0.878 -0.762,-1.671 -1.345,-0.839Z" style="fill:#002265;fill-rule:nonzero;stroke:#002265;stroke-width:2px;"/><path d="M85.168,73.395c-9.291,-6.213 -19.18,-11.58 -28.866,-17.155c-4.93,-2.837 -9.879,-5.642 -14.878,-8.356c-3.976,-2.159 -8.272,-4.338 -12.915,-4.224c-8.522,0.207 -14.208,7.499 -17.587,14.548c-4.213,8.791 -7.045,18.244 -8.593,27.858c-1.822,11.322 -1.738,22.794 0.051,34.114c0.206,1.298 2.2,0.808 1.987,-0.482c-2.012,-12.175 -1.878,-24.666 0.485,-36.778c1.08,-5.539 2.605,-10.996 4.556,-16.292c2.026,-5.504 4.343,-11.384 8.393,-15.75c4.525,-4.879 10.554,-6.503 16.836,-4.215c5.839,2.126 11.3,5.808 16.704,8.831c11.11,6.213 21.878,13.049 33.018,19.199c0.863,0.475 1.632,-0.748 0.809,-1.298Z" style="fill:#002265;fill-rule:nonzero;stroke:#002265;stroke-width:2px;"/><path d="M62.98,123.142c-2.993,5.185 -9.54,3.786 -14.496,3.312c-5.076,-0.475 -10.153,-0.957 -15.23,-1.446c-4.855,-0.475 -9.71,-0.948 -14.568,-1.392c-4.049,-0.381 -11.311,0.288 -13.783,-3.747c-0.525,-0.855 -1.808,-0.163 -1.373,0.746c1.801,3.756 6.126,4.105 9.819,4.486c6.837,0.692 13.685,1.299 20.529,1.92c6.692,0.614 13.431,1.555 20.146,1.851c4.229,0.186 8.715,-0.73 10.324,-5.108c0.295,-0.809 -0.941,-1.361 -1.368,-0.622Z" style="fill:#002265;fill-rule:nonzero;stroke:#002265;stroke-width:2px;"/><path d="M73.981,115.36c-13.38,-2.854 -25.959,-9.493 -34.255,-20.62c-8.612,-11.549 -10.917,-26.871 -5.587,-40.277c0.389,-0.981 -1.133,-1.381 -1.547,-0.46c-5.962,13.259 -3.349,29.344 4.841,41.082c8.311,11.909 21.877,19.482 35.957,22.257c1.29,0.257 1.904,-1.703 0.591,-1.982Z" style="fill:#002265;fill-rule:nonzero;stroke:#002265;stroke-width:2px;"/><path d="M69.79,119.915c-14.74,-2.441 -28.93,-9.562 -38.151,-21.569c-9.819,-12.787 -12.463,-29.742 -6.91,-44.859c0.304,-0.827 -1.061,-1.467 -1.435,-0.647c-6.733,14.739 -3.604,32.556 5.715,45.473c9.405,13.043 24.533,20.997 40.19,23.585c1.299,0.21 1.904,-1.765 0.591,-1.983Z" style="fill:#002265;fill-rule:nonzero;stroke:#002265;stroke-width:2px;"/><path d="M84.017,74.66c-2.03,7.085 -6.833,13.138 -10.309,19.566c-3.35,6.191 -6.141,12.636 -7.828,19.485c-0.257,1.05 1.36,1.54 1.624,0.482c1.89,-7.681 5.209,-14.818 9.081,-21.69c3.141,-5.577 7.79,-11.162 8.793,-17.63c0.123,-0.785 -1.152,-0.95 -1.361,-0.213Z" style="fill:#002265;fill-rule:nonzero;stroke:#002265;stroke-width:2px;"/><path d="M15.002,159.262c-1.229,-5.948 -3.837,-11.74 -5.458,-17.617c-1.739,-6.29 -2.728,-12.602 -3.413,-19.094c-0.096,-0.894 -1.47,-0.987 -1.456,-0.023c0.094,6.391 1.447,12.75 3.041,18.915c1.571,6.079 3.141,12.695 5.891,18.355c0.384,0.793 1.564,0.28 1.395,-0.536Z" style="fill:#002265;fill-rule:nonzero;stroke:#002265;stroke-width:2px;"/><path d="M18.492,141.544c-0.048,-5.349 -0.508,-11.242 0.902,-16.443c0.268,-0.995 -1.23,-1.438 -1.533,-0.458c-1.565,5.107 -1.154,10.922 -1.162,16.209c-0.008,5.395 -0.13,11.327 1.341,16.567c0.22,0.785 1.527,0.723 1.486,-0.163c-0.243,-5.256 -0.986,-10.433 -1.034,-15.712Z" style="fill:#002265;fill-rule:nonzero;stroke:#002265;stroke-width:2px;"/><path d="M59.955,153.82c-1.858,-4.704 -3.552,-9.392 -4.734,-14.321c-0.956,-3.98 -1.275,-8.194 -3.087,-11.918c-0.365,-0.762 -1.718,-0.272 -1.407,0.544c1.687,4.394 2.076,9.112 3.242,13.652c1.135,4.385 2.597,8.739 4.517,12.843c0.467,0.996 1.858,0.179 1.469,-0.8Z" style="fill:#002265;fill-rule:nonzero;stroke:#002265;stroke-width:2px;"/><path d="M63.578,153.151c-1.073,-4.633 -0.87,-9.469 -0.956,-14.196c-0.078,-4.035 -1.112,-9.314 0.233,-13.17c0.327,-0.932 -1.057,-1.29 -1.438,-0.428c-1.718,3.873 -0.653,9.446 -0.583,13.567c0.078,4.874 -0.163,9.881 1.003,14.655c0.272,1.119 1.998,0.699 1.741,-0.428Z" style="fill:#002265;fill-rule:nonzero;stroke:#002265;stroke-width:2px;"/><path d="M23.179,157.108c-1.746,-0.256 -9.534,-1.446 -8.592,2.092c0.246,0.925 1.513,0.552 1.408,-0.35c-0.034,-0.296 5.589,-0.117 6.278,-0.031c3.051,0.365 6.06,1.998 5.979,5.473c-0.027,1.127 1.557,1.096 1.71,0.031c0.586,-4.043 -3.192,-6.678 -6.783,-7.215Z" style="fill:#002265;fill-rule:nonzero;stroke:#002265;stroke-width:2px;"/><path d="M28.441,164.082c-4.512,0.054 -8.934,0.008 -13.418,-0.583c-1.074,-0.14 -1.103,1.555 -0.033,1.695c4.43,0.575 8.961,0.87 13.42,0.443c0.969,-0.093 1.058,-1.571 0.031,-1.555Z" style="fill:#002265;fill-rule:nonzero;stroke:#002265;stroke-width:2px;"/><path d="M15.375,164.533c-0.177,-0.886 -0.564,-1.718 -0.755,-2.605c-0.208,-0.956 -0.272,-1.928 -0.331,-2.899c-0.06,-0.98 -1.453,-1.027 -1.534,-0.032c-0.157,1.897 0.118,4.463 1.205,6.08c0.473,0.708 1.594,0.342 1.415,-0.544Z" style="fill:#002265;fill-rule:nonzero;stroke:#002265;stroke-width:2px;"/><path d="M72.285,154.395c-3.56,-1.726 -8.652,-1.788 -12.493,-1.672c-1.119,0.039 -1.174,1.742 -0.039,1.75c2.986,0.039 5.924,0.249 8.855,0.839c1.322,0.265 2.947,0.475 3.95,1.485c1.383,1.384 1.594,3.646 1.524,5.473c-0.056,1.174 1.772,1.213 1.827,0.039c0.124,-2.985 -0.7,-6.499 -3.624,-7.914Z" style="fill:#002265;fill-rule:nonzero;stroke:#002265;stroke-width:2px;"/><path d="M58.058,153.695c-0.761,2.41 -1.057,5.155 -0.349,7.619c0.256,0.879 1.757,0.824 1.679,-0.186c-0.179,-2.403 -0.272,-4.587 0.311,-6.951c0.256,-1.065 -1.306,-1.539 -1.641,-0.482Z" style="fill:#002265;fill-rule:nonzero;stroke:#002265;stroke-width:2px;"/><path d="M74.127,161.112c-4.873,-0.085 -9.763,-0.179 -14.638,-0.171c-1.127,0 -1.166,1.718 -0.039,1.757c4.882,0.179 9.765,0.249 14.639,0.358c1.252,0.031 1.298,-1.928 0.038,-1.944Z" style="fill:#002265;fill-rule:nonzero;stroke:#002265;stroke-width:2px;"/><path d="M65.048,154.247c-0.024,-1.018 -1.571,-1.057 -1.594,-0.031c-0.023,1.096 -0.039,2.193 -0.039,3.289c0,1.073 1.672,1.111 1.672,0.031c-0,-1.096 -0.016,-2.193 -0.039,-3.289Z" style="fill:#002265;fill-rule:nonzero;stroke:#002265;stroke-width:2px;"/><path d="M68.997,154.224c-0.334,-0.35 -0.801,-0.295 -1.158,-0.031c-1.026,0.746 -1.431,1.982 -1.299,3.211c0.055,0.443 0.615,0.707 1.011,0.614c0.482,-0.125 0.676,-0.568 0.614,-1.019c-0.077,-0.653 0.288,-1.236 0.793,-1.617c0.35,-0.264 0.318,-0.855 0.039,-1.158Z" style="fill:#002265;fill-rule:nonzero;stroke:#002265;stroke-width:2px;"/><path d="M19.303,157.287c-0.575,1.376 -0.795,2.908 -0.687,4.393c0.079,1.096 1.799,1.158 1.736,0.031c-0.076,-1.369 0.06,-2.667 0.392,-3.996c0.237,-0.957 -1.074,-1.306 -1.441,-0.428Z" style="fill:#002265;fill-rule:nonzero;stroke:#002265;stroke-width:2px;"/><path d="M21.334,157.87c-0.368,1.236 -0.427,2.449 -0.268,3.724c0.134,1.073 1.796,0.676 1.646,-0.396c-0.133,-0.957 -0.076,-1.944 0.124,-2.885c0.207,-0.972 -1.209,-1.422 -1.502,-0.443Z" style="fill:#002265;fill-rule:nonzero;stroke:#002265;stroke-width:2px;"/><path d="M99.831,51.753c-0.343,0.075 -0.677,0.256 -0.996,0.491c-1.29,0.611 -2.153,2.235 -0.979,3.447c1.539,1.594 4.408,-0.328 4.33,-2.264c-0.046,-1.215 -1.22,-1.926 -2.355,-1.674Z" style="fill:#002265;fill-rule:nonzero;stroke:#002265;stroke-width:2px;"/><path d="M82.921,39.341c-1.112,-0.043 -2.052,0.767 -2.169,1.871c-0.008,0.093 0,0.184 0,0.276c-0.203,0.226 -0.304,0.552 -0.14,0.88c0.459,0.955 1.555,1.508 2.597,1.293c1.042,-0.215 1.772,-1.254 1.733,-2.301c-0.046,-1.104 -0.91,-1.977 -2.021,-2.019Z" style="fill:#002265;fill-rule:nonzero;stroke:#002265;stroke-width:2px;"/><path d="M117.269,33.475c-2.939,-4.398 -6.733,-8.308 -10.519,-11.972c-3.903,-3.773 -8.311,-7.209 -13.559,-8.849c-10.573,-3.307 -19.071,3.117 -26.06,10.405c-6.32,6.597 -11.21,16.988 -4.54,25.119c3.716,4.523 8.941,8.285 13.551,11.862c5.045,3.91 10.418,7.413 16.381,9.736c1.197,0.465 1.71,-1.4 0.559,-1.887c-5.566,-2.378 -10.627,-5.512 -15.432,-9.179c-4.33,-3.301 -8.871,-6.732 -12.664,-10.655c-10.185,-10.533 1.896,-23.801 10.651,-30.354c5.449,-4.082 11.669,-5.439 18.192,-3.042c6.173,2.269 10.969,7.105 15.393,11.787c6.904,7.301 16.264,20.25 6.111,29.15c-0.747,0.655 0.28,1.716 1.042,1.112c7.315,-5.839 5.496,-16.32 0.894,-23.233Z" style="fill:#002265;fill-rule:nonzero;stroke:#002265;stroke-width:2px;"/><path d="M123.869,11.869c-0.358,1.643 -0.723,3.286 -1.081,4.929c-0.396,1.794 -0.575,5.103 -2.977,5.276c-0.918,0.066 -0.933,1.303 -0.023,1.417c1.803,0.231 3.039,-1.027 3.677,-2.616c1.049,-2.65 1.391,-5.753 2.006,-8.531c0.233,-1.041 -1.369,-1.524 -1.602,-0.475Z" style="fill:#002265;fill-rule:nonzero;stroke:#002265;stroke-width:2px;"/><path d="M118.497,8.578c-0.676,4.438 -1.057,8.927 -0.847,13.418c0.046,0.891 1.383,0.94 1.407,0.028c0.109,-4.506 0.365,-8.954 1.049,-13.414c0.156,-1.017 -1.454,-1.044 -1.609,-0.032Z" style="fill:#002265;fill-rule:nonzero;stroke:#002265;stroke-width:2px;"/><path d="M129.506,6.916c-3.413,-0.696 -7.238,-0.19 -10.55,0.8c-0.856,0.258 -0.552,1.555 0.334,1.362c3.39,-0.734 6.562,-0.714 9.99,-0.717c0.793,-0.001 1.073,-1.274 0.226,-1.445Z" style="fill:#002265;fill-rule:nonzero;stroke:#002265;stroke-width:2px;"/><path d="M139.301,21.61c-3.179,-4.85 -6.429,-9.657 -9.795,-14.375c-0.529,-0.738 -1.789,-0.094 -1.268,0.685c3.227,4.815 6.461,9.619 9.656,14.451c0.568,0.851 1.975,0.102 1.407,-0.761Z" style="fill:#002265;fill-rule:nonzero;stroke:#002265;stroke-width:2px;"/><path d="M134.264,23.081c-3.281,-3.697 -6.352,-7.031 -8.568,-11.53c-0.404,-0.821 -1.601,-0.149 -1.236,0.67c1.975,4.399 4.921,9.109 8.863,11.999c0.699,0.511 1.477,-0.529 0.941,-1.139Z" style="fill:#002265;fill-rule:nonzero;stroke:#002265;stroke-width:2px;"/><path d="M132.887,23.156c-1.461,1.704 -2.511,3.624 -3.086,5.798c-0.264,1.029 1.314,1.505 1.594,0.472c0.497,-1.876 1.345,-3.607 2.589,-5.103c0.645,-0.778 -0.42,-1.95 -1.097,-1.167Z" style="fill:#002265;fill-rule:nonzero;stroke:#002265;stroke-width:2px;"/><path d="M130.299,28.566c-2.504,-1.209 -5.069,-2.332 -7.635,-3.385c-0.801,-0.327 -1.423,1.031 -0.63,1.396c2.519,1.166 5.085,2.285 7.674,3.294c0.754,0.292 1.321,-0.95 0.591,-1.305Z" style="fill:#002265;fill-rule:nonzero;stroke:#002265;stroke-width:2px;"/><path d="M134.022,36.473c-4.058,-1.199 -12.718,-4.588 -11.296,-10.137c0.233,-0.897 -1.08,-1.288 -1.376,-0.41c-2.223,6.528 7.448,10.743 12.206,12.115c1.011,0.291 1.477,-1.269 0.466,-1.568Z" style="fill:#002265;fill-rule:nonzero;stroke:#002265;stroke-width:2px;"/><path d="M139.006,22.047c-0.295,-0.843 -1.625,-0.554 -1.376,0.336c1.376,4.832 2.876,12.012 -3.786,13.364c-0.832,0.168 -0.684,1.472 0.155,1.47c2.558,-0.005 4.564,-1.723 5.652,-3.961c1.742,-3.561 0.575,-7.688 -0.645,-11.209Z" style="fill:#002265;fill-rule:nonzero;stroke:#002265;stroke-width:2px;"/><path d="M145.117,55.404c-0.506,-7.31 -3.538,-14.336 -8.754,-19.51c-0.7,-0.693 -1.781,0.312 -1.12,1.046c4.362,4.846 7.246,10.875 7.806,17.42c0.482,5.584 -0.125,14.339 -5.544,17.505c-1.026,0.598 -0.186,2.156 0.879,1.62c6.064,-3.063 7.16,-12.031 6.733,-18.081Z" style="fill:#002265;fill-rule:nonzero;stroke:#002265;stroke-width:2px;"/><path d="M140.397,31.764c-0.606,-0.7 -1.57,0.258 -1.033,0.967c6.017,7.896 10.744,17.221 10.223,27.415c-0.467,9.084 -5.31,17.248 -13.294,21.634c-1.003,0.551 -0.187,2.008 0.831,1.545c8.545,-3.87 13.528,-13.089 14.29,-22.17c0.902,-10.79 -4.105,-21.388 -11.017,-29.391Z" style="fill:#002265;fill-rule:nonzero;stroke:#002265;stroke-width:2px;"/><path d="M131.387,76.692c-7.152,4.12 -15.184,6.208 -23.463,5.609c-4.066,-0.294 -7.821,-1.238 -11.382,-2.666c-0.093,0.792 -0.389,1.553 -0.886,2.165c11.809,4.722 25.896,3.526 36.882,-2.994c1.329,-0.788 0.202,-2.889 -1.151,-2.114Z" style="fill:#002265;fill-rule:nonzero;stroke:#002265;stroke-width:2px;"/><path d="M88.931,75.721c-1.174,-0.729 -2.34,-1.489 -3.499,-2.305c-0.762,-0.543 -1.749,0.633 -1.049,1.281c1.096,1.024 2.254,1.959 3.459,2.819c0.202,-0.683 0.56,-1.311 1.089,-1.795Z" style="fill:#002265;fill-rule:nonzero;stroke:#002265;stroke-width:2px;"/><path d="M84.258,85.443c-0.66,-0.6 -1.174,-1.28 -1.43,-2.064c-0.351,-1.055 -1.805,-0.677 -1.656,0.405c0.218,1.662 1.182,2.879 2.457,3.824c0.022,-0.767 0.233,-1.522 0.629,-2.165Z" style="fill:#002265;fill-rule:nonzero;stroke:#002265;stroke-width:2px;"/><path d="M131.138,84.208c-7.588,4.093 -15.525,6.637 -24.209,6.735c-4.23,0.048 -8.482,-0.422 -12.587,-1.474c-0.622,-0.161 -1.376,-0.344 -2.185,-0.557c0.008,0.745 -0.163,1.491 -0.505,2.142c3.879,1.22 7.914,1.966 11.972,2.206c9.804,0.58 20.3,-1.665 28.603,-7.048c1.212,-0.789 0.217,-2.71 -1.089,-2.004Z" style="fill:#002265;fill-rule:nonzero;stroke:#002265;stroke-width:2px;"/><path d="M75.107,69.104c-2.417,4.11 -4.835,8.219 -7.478,12.193c-0.723,1.09 1.011,2.164 1.725,1.074c2.628,-3.995 5.093,-8.074 7.177,-12.381c0.458,-0.947 -0.863,-1.833 -1.424,-0.886Z" style="fill:#002265;fill-rule:nonzero;stroke:#002265;stroke-width:2px;"/></g></svg>