<?xml version="1.0" encoding="UTF-8" standalone="no"?><!DOCTYPE svg PUBLIC "-//W3C//DTD SVG 1.1//EN" "http://www.w3.org/Graphics/SVG/1.1/DTD/svg11.dtd"><svg width="100%" height="100%" viewBox="0 0 249 150" version="1.1" xmlns="http://www.w3.org/2000/svg" xmlns:xlink="http://www.w3.org/1999/xlink" xml:space="preserve" xmlns:serif="http://www.serif.com/" style="fill-rule:evenodd;clip-rule:evenodd;stroke-linejoin:round;stroke-miterlimit:2;"><path d="M73.608,134.501c-1.508,1.385 -6.197,1.88 -7.549,-0.093c-0.673,-0.982 -0.604,-2.99 -0.281,-4.053c0.326,-1.077 1.049,-1.686 1.944,-2.166c0.136,0.06 0.289,0.067 0.436,-0.034c1.736,-1.187 4.29,-1.13 5.792,0.469c1.508,1.607 1.255,4.412 -0.342,5.877Zm1.853,-6.163c-1.649,-2.307 -4.695,-2.749 -7.082,-1.567c-0.084,-0.054 -0.175,-0.097 -0.275,-0.111c-3.975,-0.504 -4.744,5.132 -3.724,7.842c1.259,3.349 6.95,3.369 9.539,1.688c2.497,-1.622 3.292,-5.402 1.542,-7.852Z" style="fill:#002265;fill-rule:nonzero;stroke:#002265;stroke-width:2px;"/><path d="M79.386,135.516c-3.152,5.579 -10.873,7.108 -15.84,3.701c-2.46,-1.688 -4.221,-4.456 -4.153,-7.688c0.067,-3.19 1.634,-5.264 3.819,-7.17c0.074,-0.064 0.119,-0.144 0.152,-0.227c2.537,-1.664 5.711,-2.39 8.599,-2.16c6.172,0.493 11.005,7.204 7.423,13.544Zm-4.939,-14.622c-4.161,-1.151 -9.54,-0.141 -13.068,2.901c-1.817,1.091 -2.845,2.881 -3.242,4.91c-0.129,0.43 -0.235,0.876 -0.31,1.339c-0.032,0.201 0.024,0.369 0.121,0.498c-0.061,3.441 1.411,7.15 3.781,9.184c5.463,4.687 14.097,3.378 18.314,-2.614c4.252,-6.042 0.927,-14.416 -5.596,-16.218Z" style="fill:#002265;fill-rule:nonzero;stroke:#002265;stroke-width:2px;"/><path d="M75.457,117.752c-3.136,-0.793 -16.333,-1.303 -11.72,5.078c0.481,0.666 1.582,-0.141 1.163,-0.837c-2.007,-3.342 6.014,-3.06 9.27,-2.769c-0.149,0.405 -0.329,0.794 -0.558,1.186c-0.517,0.884 0.824,1.724 1.35,0.843c0.483,-0.809 0.809,-1.584 1.039,-2.495c0.105,-0.41 -0.106,-0.895 -0.544,-1.006Z" style="fill:#002265;fill-rule:nonzero;stroke:#002265;stroke-width:2px;"/><path d="M85.119,129.27c-0.098,-0.993 0.013,-2.665 -0.887,-3.308c-0.976,-0.7 -2.652,-0.017 -3.53,0.494c-0.78,0.455 -0.149,1.544 0.655,1.209c0.615,-0.3 1.263,-0.454 1.945,-0.464c0.08,0.518 0.153,1.036 0.221,1.556c0.112,0.967 0.197,1.95 0.134,2.924c-0.126,1.948 -0.815,3.659 -2.355,4.92c-0.777,0.636 0.287,1.746 1.061,1.132c2.585,-2.054 3.065,-5.346 2.756,-8.463Z" style="fill:#002265;fill-rule:nonzero;stroke:#002265;stroke-width:2px;"/><path d="M82.588,136.864c-0.504,-0.29 -1.009,-0.578 -1.518,-0.86c-0.366,-0.203 -0.84,-0.121 -1.069,0.248c-0.219,0.351 -0.113,0.852 0.248,1.068c0.498,0.299 1,0.593 1.502,0.885c0.88,0.511 1.721,-0.835 0.837,-1.341Z" style="fill:#002265;fill-rule:nonzero;stroke:#002265;stroke-width:2px;"/><path d="M59.424,126.391c-0.563,-0.844 -1.364,-1.449 -2.362,-1.683c-0.936,-0.22 -1.37,1.221 -0.427,1.439c0.679,0.157 1.205,0.528 1.613,1.091c0.483,0.667 1.635,-0.157 1.176,-0.847Z" style="fill:#002265;fill-rule:nonzero;stroke:#002265;stroke-width:2px;"/><path d="M56.41,124.952c-2.808,3.359 -3.068,8.12 -0.868,11.867c0.507,0.863 1.875,0.126 1.369,-0.741c-1.961,-3.349 -1.586,-7.096 0.595,-10.225c0.456,-0.654 -0.572,-1.528 -1.096,-0.901Z" style="fill:#002265;fill-rule:nonzero;stroke:#002265;stroke-width:2px;"/><path d="M59.36,135.435c-0.098,-0.396 -0.551,-0.714 -0.962,-0.583c-0.807,0.256 -1.595,0.564 -2.385,0.867c-0.375,0.145 -0.64,0.469 -0.541,0.892c0.087,0.376 0.512,0.654 0.892,0.542c0.808,-0.237 1.618,-0.47 2.412,-0.756c0.403,-0.145 0.694,-0.513 0.584,-0.962Z" style="fill:#002265;fill-rule:nonzero;stroke:#002265;stroke-width:2px;"/><path d="M62.222,139.729c-0.246,0.931 -0.444,1.861 -0.631,2.807c-0.189,0.958 1.284,1.397 1.463,0.435c0.188,-1.013 0.36,-2.015 0.485,-3.037c0.092,-0.757 -1.126,-0.93 -1.317,-0.205Z" style="fill:#002265;fill-rule:nonzero;stroke:#002265;stroke-width:2px;"/><path d="M76.495,142.088c-4.542,1.885 -9.642,3.392 -13.891,0.015c-0.659,-0.522 -1.587,0.597 -0.943,1.146c4.625,3.945 10.519,2.45 15.599,0.252c0.955,-0.413 0.178,-1.804 -0.765,-1.413Z" style="fill:#002265;fill-rule:nonzero;stroke:#002265;stroke-width:2px;"/><path d="M77.21,141.724c-0.388,-0.589 -0.883,-1.199 -1.417,-1.662c-0.261,-0.226 -0.614,-0.304 -0.91,-0.083c-0.272,0.203 -0.38,0.581 -0.208,0.891c0.341,0.609 0.825,1.235 1.319,1.73c0.265,0.265 0.685,0.319 0.99,0.092c0.28,-0.209 0.436,-0.649 0.226,-0.968Z" style="fill:#002265;fill-rule:nonzero;stroke:#002265;stroke-width:2px;"/><path d="M44.227,76.874c-1.025,-1.252 -0.442,-3.296 0.898,-4.044c1.442,-0.806 3.306,-0.199 3.86,1.402c0.34,0.984 0.027,1.816 -0.583,2.437c-0.14,0.009 -0.278,0.056 -0.395,0.179c-0.987,1.041 -2.807,1.214 -3.78,0.026Zm6.458,-3.238c-0.935,-2.633 -3.985,-3.75 -6.419,-2.391c-2.279,1.272 -2.937,4.33 -1.403,6.441c0.997,1.372 2.692,1.814 4.176,1.393c2.752,0.122 4.515,-2.999 3.646,-5.443Z" style="fill:#002265;fill-rule:nonzero;stroke:#002265;stroke-width:2px;"/><path d="M36.722,87.336c-1.256,0.171 -2.466,-0.876 -2.586,-2.185c-0.121,-1.324 1.079,-2.309 2.337,-2.342c1.254,-0.031 2.086,1.005 2.104,2.205c0.019,1.253 -0.834,1.922 -1.855,2.322Zm3.628,-2.573c-0.149,-2.337 -2.144,-4.062 -4.493,-3.654c-2.259,0.392 -3.845,2.479 -3.225,4.758c0.327,1.204 1.29,2.278 2.438,2.764c0.09,0.246 0.297,0.445 0.62,0.45c2.563,0.045 4.838,-1.541 4.66,-4.318Z" style="fill:#002265;fill-rule:nonzero;stroke:#002265;stroke-width:2px;"/><path d="M52.104,66.807c-6.931,-4.76 -19.332,1.211 -15.548,10.28c0.307,0.733 1.517,0.257 1.296,-0.5c-2.179,-7.469 7.503,-12.253 13.275,-8.216c6.355,4.446 2.864,13.086 -4.062,14.17c-0.879,0.137 -0.728,1.616 0.172,1.563c8.855,-0.531 12.309,-12.185 4.867,-17.297Z" style="fill:#002265;fill-rule:nonzero;stroke:#002265;stroke-width:2px;"/><path d="M44.005,86.976c-0.248,-0.698 -1.436,-0.715 -1.4,0.155c0.325,7.82 -10.521,7.698 -14.053,2.633c-1.72,-2.466 -2.1,-5.775 -0.612,-8.458c0.695,-1.252 6.068,-6.463 7.581,-3.85c0.384,0.665 1.546,0.289 1.3,-0.501c-1.041,-3.354 -6.539,-0.578 -8.196,0.797c-3.499,2.902 -4.449,7.831 -2.436,11.882c2.035,4.095 6.833,6.234 11.296,5.711c4.045,-0.473 8.074,-4.009 6.52,-8.369Z" style="fill:#002265;fill-rule:nonzero;stroke:#002265;stroke-width:2px;"/><path d="M57.962,89.488c-1.46,-1.181 -3.027,-2.224 -4.589,-3.265c-0.727,-0.485 -1.458,-0.967 -2.189,-1.447c-0.637,-0.418 -2.366,-1.166 -2.551,-1.98c-0.202,-0.886 -1.67,-0.769 -1.618,0.178c0.094,1.757 1.844,2.54 3.153,3.43c2.269,1.541 4.528,3.142 6.941,4.451c0.933,0.507 1.646,-0.726 0.853,-1.367Z" style="fill:#002265;fill-rule:nonzero;stroke:#002265;stroke-width:2px;"/><path d="M54.378,94.528c-2.183,-1.028 -4.257,-2.239 -6.151,-3.739c-1.693,-1.343 -3.162,-2.868 -5.151,-3.783c-0.87,-0.401 -1.682,0.772 -0.813,1.303c1.84,1.128 3.334,2.666 5.013,4.004c1.891,1.506 3.942,2.747 6.131,3.77c1.055,0.492 2.037,-1.053 0.971,-1.555Z" style="fill:#002265;fill-rule:nonzero;stroke:#002265;stroke-width:2px;"/><path d="M57.792,89.411c-0.655,-0.531 -1.369,0.503 -0.891,1.085c0.822,1.002 -0.284,2.359 -1.14,2.887c-1.079,0.665 -2.154,0.532 -3.359,0.522c-0.706,-0.006 -1.046,0.988 -0.403,1.359c1.737,1.005 4.217,0.236 5.576,-1.102c1.31,-1.292 1.778,-3.485 0.217,-4.751Z" style="fill:#002265;fill-rule:nonzero;stroke:#002265;stroke-width:2px;"/><path d="M49.629,95.673c-1.316,3.059 -1.548,6.243 -1.708,9.539c-0.207,4.257 -0.383,8.515 -0.571,12.772c-0.375,8.516 -0.784,17.03 -1.153,25.546c-0.047,1.077 1.629,1.113 1.677,0.033c0.358,-8.089 0.677,-16.18 1.031,-24.269c0.169,-3.832 0.332,-7.665 0.497,-11.496c0.17,-3.974 0.198,-7.941 1.598,-11.717c0.325,-0.878 -1.016,-1.235 -1.371,-0.408Z" style="fill:#002265;fill-rule:nonzero;stroke:#002265;stroke-width:2px;"/><path d="M129.974,110.22c-0.234,-7.811 1.208,-20.242 -8.435,-22.796c-5.103,-1.352 -10.79,-1.247 -16.024,-1.587c-5.844,-0.379 -11.696,-0.648 -17.55,-0.807c-6.271,-0.17 -12.548,-0.224 -18.822,-0.13c-4.214,0.064 -8.518,0.14 -11.802,3.139c-0.779,0.711 0.327,1.878 1.116,1.19c4.045,-3.522 10.672,-2.619 15.671,-2.634c5.02,-0.017 10.04,0.049 15.058,0.194c5.226,0.152 10.45,0.394 15.669,0.722c5.034,0.318 10.354,0.321 15.305,1.344c6.065,1.253 7.228,5.93 7.601,11.454c0.367,5.343 0.525,10.701 0.519,16.056c-0.007,10.307 -0.721,20.592 -2.074,30.809c-0.152,1.14 1.637,1.17 1.789,0.036c1.625,-12.255 2.345,-24.629 1.979,-36.99Z" style="fill:#002265;fill-rule:nonzero;stroke:#002265;stroke-width:2px;"/><path d="M126.838,146.276c-13.279,-1.317 -26.609,-1.191 -39.933,-1.024c-13.36,0.168 -26.607,-0.028 -39.954,-0.576c-1.126,-0.046 -1.099,1.567 -0.035,1.712c13.145,1.795 26.722,1.176 39.948,0.89c13.32,-0.287 26.658,-0.47 39.936,0.82c1.163,0.114 1.195,-1.706 0.038,-1.822Z" style="fill:#002265;fill-rule:nonzero;stroke:#002265;stroke-width:2px;"/><path d="M105.492,78.192c-2.185,-0.474 -4.829,-0.063 -7.069,-0.077c-2.948,-0.02 -5.895,-0.041 -8.842,-0.06c-5.473,-0.035 -10.95,-0.121 -16.423,-0.083c-1.045,0.007 -2.215,-0.194 -3.017,0.605c-1.285,1.279 -1.243,4.26 -1.599,5.916c-0.203,0.948 1.24,1.393 1.459,0.433c0.32,-1.401 0.366,-4.083 1.46,-4.99c0.987,-0.819 3.527,-0.312 4.822,-0.299c3.79,0.037 7.58,0.081 11.369,0.119c3.579,0.038 7.157,0.066 10.736,0.098c1.597,0.014 3.487,-0.249 5.052,0.048c1.073,-0.332 1.767,0.059 2.082,1.173c0.659,0.47 0.934,1.066 0.826,1.786c0.182,0.925 -0.053,2.213 -0.12,3.121c-0.085,1.141 1.694,1.177 1.776,0.036c0.206,-2.847 1.036,-7.058 -2.512,-7.826Z" style="fill:#002265;fill-rule:nonzero;stroke:#002265;stroke-width:2px;"/><path d="M75.73,69.134c-4.602,-1.071 -9.429,1.254 -12.102,5.009c-2.979,4.186 -3.023,9.799 -1.051,14.412c1.248,2.919 3.392,5.173 5.317,7.648c2.601,3.342 5.694,10.383 -0.388,12.272c-0.975,0.303 -0.631,1.802 0.381,1.555c3.5,-0.852 5.314,-4.161 4.93,-7.655c-0.58,-5.292 -5.277,-8.578 -7.769,-12.902c-3.278,-5.69 -2.692,-13.421 3.085,-17.27c5.927,-3.947 12.937,-0.435 14.179,6.282c0.139,0.751 1.341,0.617 1.331,-0.147c-0.059,-4.433 -3.686,-8.22 -7.913,-9.204Z" style="fill:#002265;fill-rule:nonzero;stroke:#002265;stroke-width:2px;"/><path d="M78.004,61.901c-5.172,-2.232 -13.538,-0.569 -14.052,6.132c-0.061,0.799 1.197,0.995 1.396,0.218c1.612,-6.302 9.082,-7.202 13.897,-3.905c4.602,3.151 5.72,8.897 5.003,14.091c-0.105,0.76 1.202,0.972 1.347,0.21c1.238,-6.527 -1.119,-13.955 -7.591,-16.746Z" style="fill:#002265;fill-rule:nonzero;stroke:#002265;stroke-width:2px;"/><path d="M109.274,40.033c-0.826,-0.174 -1.209,1.02 -0.379,1.275c4.391,1.344 13.687,4.761 8.742,10.864c-3.291,4.064 -10.71,0.385 -14.123,-1.995c-0.839,-0.586 -1.675,0.763 -0.841,1.345c4.117,2.868 13.814,7.116 17.057,0.873c3.744,-7.208 -4.937,-11.202 -10.456,-12.362Z" style="fill:#002265;fill-rule:nonzero;stroke:#002265;stroke-width:2px;"/><path d="M111.175,49.131c-2.015,-0.983 -5,-2.515 -7.314,-1.868c-1.646,0.459 -2.556,2.35 -1.439,3.748c0.512,0.642 1.553,-0.133 1.154,-0.832c-1.13,-1.983 2.714,-1.134 3.296,-0.957c1.172,0.356 2.305,0.81 3.407,1.344c0.971,0.47 1.874,-0.958 0.896,-1.435Z" style="fill:#002265;fill-rule:nonzero;stroke:#002265;stroke-width:2px;"/><path d="M113.516,47.379c-0.324,-1.017 -1.085,-1.665 -2.032,-2.106c-0.528,-0.246 -1.091,-0.392 -1.636,-0.593c-0.54,-0.199 -1.082,-0.392 -1.513,-0.785c-0.324,-0.189 -0.517,-0.476 -0.581,-0.862c-0.59,-0.793 -0.216,-1.315 1.123,-1.565c0.74,0.141 1.308,-0.838 0.577,-1.279c-1.994,-1.2 -3.988,1.153 -3.385,3.124c0.344,1.124 1.26,1.94 2.287,2.445c0.647,0.319 1.353,0.478 2.022,0.734c0.435,0.166 0.987,0.37 1.31,0.726c0.752,0.83 -0.202,1.77 -1.09,1.74c-0.728,-0.025 -0.962,1.173 -0.203,1.308c1.949,0.346 3.84,-0.629 3.121,-2.887Z" style="fill:#002265;fill-rule:nonzero;stroke:#002265;stroke-width:2px;"/><path d="M120.268,29.279c-5.503,-2.288 -8.543,7.276 -10.111,10.683c-0.392,0.852 0.849,1.647 1.256,0.783c1.218,-2.577 3.518,-9.513 6.661,-10.002c4.401,-0.685 1.815,4.708 1.011,6.328c-0.967,1.961 -1.991,3.898 -2.984,5.846c-0.462,0.901 0.879,1.744 1.34,0.838c1.417,-2.763 8.145,-12.266 2.827,-14.476Z" style="fill:#002265;fill-rule:nonzero;stroke:#002265;stroke-width:2px;"/><path d="M118.63,33.068c-0.405,-0.558 -1.1,-0.559 -1.612,-0.162c-0.19,0.148 -0.354,0.343 -0.468,0.558c-0.095,0.183 -0.19,0.4 -0.184,0.61c0,0.056 0.076,0.33 0.102,0.44c0.202,0.573 0.771,0.746 1.22,0.545c0.095,-0.04 0.183,-0.083 0.253,-0.136l0.006,0.004l0.051,-0.045c0.063,-0.055 0.133,-0.12 0.209,-0.198l0.012,-0.004l0.006,-0.004l0.051,-0.027c0.582,-0.29 0.715,-1.076 0.354,-1.581Z" style="fill:#002265;fill-rule:nonzero;stroke:#002265;stroke-width:2px;"/><path d="M116.468,34.514l-0.013,-0.031c0.032,0.107 0.032,0.093 0.013,0.031Z" style="fill:#002265;fill-rule:nonzero;stroke:#002265;stroke-width:2px;"/><path d="M100.415,59.643c-0.965,1.669 -1.675,3.477 -2.104,5.357c-0.221,0.975 1.251,1.431 1.502,0.447c0.445,-1.749 1.053,-3.403 1.858,-5.02c0.417,-0.838 -0.771,-1.623 -1.256,-0.784Z" style="fill:#002265;fill-rule:nonzero;stroke:#002265;stroke-width:2px;"/><path d="M107.427,62.403c-0.693,1.569 -1.33,3.165 -1.973,4.754c-0.377,0.932 1.119,1.367 1.496,0.445c0.649,-1.585 1.304,-3.17 1.901,-4.775c0.34,-0.914 -1.048,-1.274 -1.424,-0.424Z" style="fill:#002265;fill-rule:nonzero;stroke:#002265;stroke-width:2px;"/><path d="M108.164,61.659c-0.728,-1.168 -1.247,-2.497 -2.049,-3.608c-0.424,-0.586 -1.326,0.015 -1.175,0.636c0.319,1.307 1.198,2.559 1.917,3.68c0.513,0.799 1.815,0.108 1.307,-0.708Z" style="fill:#002265;fill-rule:nonzero;stroke:#002265;stroke-width:2px;"/><path d="M105.636,57.991c-1.776,0.245 -3.822,0.905 -5.175,2.126c-0.638,0.574 0.117,1.518 0.847,1.175c1.583,-0.745 2.94,-1.491 4.678,-1.868c0.945,-0.204 0.572,-1.56 -0.35,-1.433Z" style="fill:#002265;fill-rule:nonzero;stroke:#002265;stroke-width:2px;"/><path d="M111.944,56.824c-3.387,-3.063 -8.774,-4.776 -12.698,-1.545c-2.894,2.384 -3.663,7.458 -0.967,10.269c0.564,0.588 1.539,-0.106 1.155,-0.832c-1.53,-2.898 -1.753,-6.605 1.388,-8.611c3.406,-2.174 7.427,-0.463 10.304,1.715c0.583,0.44 1.364,-0.503 0.818,-0.996Z" style="fill:#002265;fill-rule:nonzero;stroke:#002265;stroke-width:2px;"/><path d="M111.011,55.908c-0.687,-0.427 -1.44,0.494 -0.895,1.088c1.578,1.726 2.121,3.652 1.402,5.928c-0.705,2.229 -2.454,4.886 -5.134,4.117c-0.728,-0.209 -1.272,0.873 -0.564,1.252c6.054,3.242 10.597,-9.015 5.191,-12.385Z" style="fill:#002265;fill-rule:nonzero;stroke:#002265;stroke-width:2px;"/><path d="M134.495,71.085c-2.011,-8.304 -8.511,-14.926 -16.586,-17.531c-0.898,-0.289 -1.239,1.025 -0.411,1.376c6.785,2.864 12.596,7.831 14.911,15.03c2.27,7.069 1.093,15.947 -5.754,19.934c-0.766,0.445 -0.323,1.848 0.581,1.514c7.639,-2.8 8.922,-13.471 7.259,-20.323Z" style="fill:#002265;fill-rule:nonzero;stroke:#002265;stroke-width:2px;"/><path d="M141.254,71.576c-2.977,-9.72 -11.501,-17.762 -20.575,-21.829c-0.759,-0.342 -1.366,0.978 -0.607,1.351c7.993,3.952 14.923,10.27 18.635,18.492c4.293,9.521 -1.221,21.622 -9.909,26.557c-1.037,0.59 -0.196,1.999 0.86,1.585c8.903,-3.514 14.291,-17.381 11.596,-26.156Z" style="fill:#002265;fill-rule:nonzero;stroke:#002265;stroke-width:2px;"/><path d="M92.193,135.665c-3.587,0.305 -3.54,6.384 -3.282,8.956c0.092,0.913 1.46,1.004 1.471,0.029c0.025,-2.258 -0.086,-6.282 2.132,-7.664c0.537,-0.335 0.436,-1.384 -0.321,-1.321Z" style="fill:#002265;fill-rule:nonzero;stroke:#002265;stroke-width:2px;"/><path d="M98.12,135.603c-1.111,2.331 -4.507,2.84 -5.17,-0.084c-0.295,-1.298 0.39,-3.403 0.509,-4.74c0.287,-3.236 0.323,-6.476 0.222,-9.722c-0.035,-1.125 -1.791,-1.17 -1.757,-0.035c0.103,3.447 0.035,6.889 -0.203,10.329c-0.14,2.021 -1.091,5.035 0.406,6.789c1.943,2.277 6.444,0.585 7.277,-1.959c0.244,-0.742 -0.933,-1.314 -1.284,-0.578Z" style="fill:#002265;fill-rule:nonzero;stroke:#002265;stroke-width:2px;"/><path d="M99.662,112.532c-1.564,-1.849 -4.195,-1.262 -5.712,0.319c-1.983,2.066 -1.931,5.271 -1.474,7.892c0.139,0.794 1.406,0.645 1.401,-0.156c-0.007,-0.988 -0.123,-2.003 -0.068,-2.991c-0.036,-0.868 0.149,-1.672 0.555,-2.412c0.551,-1.803 2.057,-1.736 4.52,0.2c0.638,1.375 -0.054,4.884 -0.083,6.352c-0.085,4.366 0.018,8.822 -0.479,13.164c-0.086,0.751 1.145,0.942 1.317,0.205c0.948,-4.052 0.68,-8.58 0.793,-12.723c0.071,-2.635 1.144,-7.589 -0.77,-9.85Z" style="fill:#002265;fill-rule:nonzero;stroke:#002265;stroke-width:2px;"/><path d="M97.056,116.242c-0.079,-0.145 -0.197,-0.258 -0.329,-0.351c-0.149,-0.249 -0.452,-0.402 -0.736,-0.366c-0.194,0.024 -0.343,0.108 -0.454,0.228l-0.024,0.006c-0.158,0.056 -0.284,0.144 -0.447,0.125c-0.415,-0.049 -0.791,0.375 -0.794,0.763c-0.002,0.229 0.056,0.407 0.177,0.578c0.26,0.491 0.748,0.872 1.345,0.731c0.179,-0.041 0.335,-0.125 0.475,-0.225c0.231,-0.019 0.448,-0.119 0.627,-0.323c0.271,-0.31 0.363,-0.793 0.16,-1.166Z" style="fill:#002265;fill-rule:nonzero;stroke:#002265;stroke-width:2px;"/><path d="M112.856,136.158c-3.749,-2 -9.306,-1.298 -13.347,-1.242c-1.035,0.013 -1.071,1.558 -0.032,1.611c3.155,0.162 6.381,-0.035 9.52,0.3c2.232,0.239 4.256,1.012 5.144,3.226c0.65,1.618 0.389,3.497 0.2,5.189c-0.119,1.076 1.583,1.116 1.69,0.033c0.342,-3.459 0.291,-7.27 -3.175,-9.117Z" style="fill:#002265;fill-rule:nonzero;stroke:#002265;stroke-width:2px;"/><path d="M105.354,136.377c-0.143,1.578 -0.243,3.184 -0.253,4.768c-0.006,1.047 1.533,1.065 1.617,0.033c0.128,-1.579 0.168,-3.187 0.162,-4.771c-0.004,-0.989 -1.437,-1.003 -1.526,-0.03Z" style="fill:#002265;fill-rule:nonzero;stroke:#002265;stroke-width:2px;"/><path d="M101.032,136.174c-0.163,1.653 -0.447,3.294 -0.473,4.964c-0.018,1.177 1.646,1.155 1.792,0.035c0.217,-1.652 0.174,-3.311 0.253,-4.968c0.048,-1.019 -1.472,-1.027 -1.572,-0.031Z" style="fill:#002265;fill-rule:nonzero;stroke:#002265;stroke-width:2px;"/><path d="M146.048,76.893c-1.404,11.518 -1.866,23.231 -2.479,34.813c-0.613,11.613 -1.126,23.235 -1.593,34.855c-0.044,1.015 1.543,1.051 1.581,0.031c0.436,-11.627 1.037,-23.239 1.764,-34.851c0.727,-11.591 1.853,-23.212 2.226,-34.817c0.031,-0.983 -1.385,-0.972 -1.499,-0.031Z" style="fill:#002265;fill-rule:nonzero;stroke:#002265;stroke-width:2px;"/><path d="M205.323,101.258c-1.992,-9.589 -8.593,-15.475 -17.44,-18.999c-12.57,-5.007 -26.4,-6.942 -39.868,-6.044c-0.98,0.065 -1.025,1.593 -0.032,1.536c10.718,-0.624 21.43,0.427 31.762,3.423c9.846,2.858 19.944,7.104 23.295,17.669c2.599,8.204 1.442,17.822 -1.479,25.788c-3.548,9.667 -10.611,15.849 -20.937,17.226c-12.267,1.636 -25.002,1.374 -37.358,1.94c-1.113,0.05 -1.157,1.793 -0.039,1.741c12.167,-0.556 24.599,-0.447 36.695,-1.89c9.934,-1.186 17.554,-6.123 21.866,-15.259c3.851,-8.161 5.375,-18.256 3.535,-27.131Z" style="fill:#002265;fill-rule:nonzero;stroke:#002265;stroke-width:2px;"/><path d="M177.412,95.907c-1.126,0.946 -2.201,1.963 -3.2,3.038c-0.885,0.953 -1.897,1.98 -2.377,3.2c-0.31,0.771 0.708,1.161 1.233,0.764c1.037,-0.778 1.802,-2.004 2.63,-2.991c0.86,-1.022 1.771,-1.995 2.694,-2.963c0.639,-0.67 -0.272,-1.644 -0.98,-1.048Z" style="fill:#002265;fill-rule:nonzero;stroke:#002265;stroke-width:2px;"/><path d="M178.822,100.114c-1.954,-1.537 -3.996,-2.95 -6.115,-4.253c-0.847,-0.523 -1.599,0.725 -0.809,1.299c2.011,1.463 3.996,2.958 5.976,4.47c0.916,0.702 1.833,-0.816 0.948,-1.516Z" style="fill:#002265;fill-rule:nonzero;stroke:#002265;stroke-width:2px;"/><path d="M177.791,120.292c-1.328,0.763 -2.51,1.791 -3.497,2.966c-0.859,1.029 -2.042,2.467 -2.105,3.855c-0.025,0.621 0.784,0.979 1.227,0.545c0.897,-0.872 1.346,-2.258 2.13,-3.263c0.892,-1.14 1.942,-2.068 3.074,-2.96c0.632,-0.504 -0.133,-1.539 -0.829,-1.143Z" style="fill:#002265;fill-rule:nonzero;stroke:#002265;stroke-width:2px;"/><path d="M178.493,126.019c-1.985,-1.314 -3.882,-2.736 -5.754,-4.207c-0.715,-0.561 -1.606,0.578 -0.999,1.211c1.707,1.779 3.655,3.306 5.741,4.614c1.044,0.654 2.037,-0.942 1.012,-1.618Z" style="fill:#002265;fill-rule:nonzero;stroke:#002265;stroke-width:2px;"/><path d="M182.749,133.977c-5.318,3.095 -11.869,2.317 -17.756,2.003c-3.851,-0.204 -8.239,0.331 -9.365,-4.303c-0.67,-2.769 -0.664,-5.929 -0.771,-8.761c-0.234,-6.132 0.113,-12.273 0.79,-18.369c0.462,-4.171 0.575,-16.59 6.159,-17.858c0.006,0.462 0.297,0.901 0.892,0.881c11.565,-0.414 24.129,3.855 29.327,15.037c4.806,10.337 0.81,25.503 -9.276,31.37Zm10.534,-33.122c-5.482,-10.53 -17.117,-15.076 -28.448,-15.207c-0.076,-0.103 -0.177,-0.194 -0.335,-0.246c-3.927,-1.294 -7.108,1.744 -8.322,5.274c-1.922,5.591 -2.175,12.274 -2.649,18.117c-0.557,6.915 -0.677,13.905 0.063,20.811c0.411,3.818 1.359,7.253 5.615,7.936c10.642,1.709 22.96,2.155 30.282,-6.984c6.482,-8.095 8.682,-20.305 3.794,-29.701Z" style="fill:#002265;fill-rule:nonzero;stroke:#002265;stroke-width:2px;"/><path d="M222.801,141.59c-0.304,3.588 -6.38,3.541 -8.954,3.283c-0.911,-0.092 -1.005,-1.46 -0.032,-1.471c2.264,-0.025 6.286,0.085 7.664,-2.132c0.335,-0.537 1.391,-0.436 1.322,0.32Z" style="fill:#002265;fill-rule:nonzero;stroke:#002265;stroke-width:2px;"/><path d="M223.275,136.116c-2.466,0.762 -3.465,4.048 -0.664,5.129c1.239,0.479 3.421,0.107 4.762,0.184c3.243,0.185 6.456,0.621 9.649,1.192c1.107,0.197 0.898,1.941 -0.221,1.743c-3.396,-0.602 -6.811,-1.035 -10.25,-1.298c-2.018,-0.155 -5.135,0.347 -6.653,-1.388c-1.973,-2.252 0.355,-6.461 2.991,-6.915c0.772,-0.133 1.164,1.113 0.386,1.353Z" style="fill:#002265;fill-rule:nonzero;stroke:#002265;stroke-width:2px;"/><path d="M246.324,137.941c1.606,1.815 0.645,4.334 -1.145,5.605c-2.327,1.661 -5.495,1.145 -8.018,0.312c-0.765,-0.252 -0.436,-1.484 0.354,-1.363c0.98,0.15 1.967,0.412 2.953,0.501c0.854,0.163 1.676,0.096 2.466,-0.198c1.859,-0.284 2.017,-1.784 0.456,-4.502c-1.265,-0.831 -4.838,-0.655 -6.292,-0.84c-4.338,-0.55 -8.733,-1.297 -13.096,-1.437c-0.759,-0.023 -0.765,-1.27 -0.012,-1.333c4.148,-0.35 8.587,0.573 12.703,1.063c2.618,0.312 7.67,-0.03 9.631,2.192Z" style="fill:#002265;fill-rule:nonzero;stroke:#002265;stroke-width:2px;"/><path d="M242.277,139.98c0.132,0.1 0.227,0.233 0.297,0.377c0.228,0.184 0.335,0.505 0.259,0.781c-0.05,0.188 -0.158,0.324 -0.291,0.417l-0.012,0.022c-0.076,0.148 -0.184,0.26 -0.19,0.425c-0.006,0.417 -0.481,0.728 -0.866,0.674c-0.228,-0.031 -0.399,-0.114 -0.551,-0.259c-0.448,-0.329 -0.752,-0.866 -0.524,-1.437c0.063,-0.171 0.17,-0.313 0.29,-0.437c0.051,-0.225 0.184,-0.427 0.412,-0.574c0.347,-0.223 0.834,-0.243 1.176,0.011Z" style="fill:#002265;fill-rule:nonzero;stroke:#002265;stroke-width:2px;"/><path d="M222.308,120.928c2.004,3.749 1.302,9.306 1.245,13.346c-0.012,1.036 -1.555,1.072 -1.612,0.033c-0.158,-3.155 0.038,-6.381 -0.297,-9.52c-0.241,-2.232 -1.012,-4.256 -3.232,-5.145c-1.612,-0.649 -3.496,-0.387 -5.185,-0.2c-1.075,0.12 -1.119,-1.585 -0.031,-1.691c3.458,-0.34 7.265,-0.288 9.112,3.177Z" style="fill:#002265;fill-rule:nonzero;stroke:#002265;stroke-width:2px;"/><path d="M222.093,128.43c-1.581,0.143 -3.187,0.244 -4.768,0.253c-1.05,0.005 -1.069,-1.533 -0.032,-1.617c1.575,-0.129 3.187,-0.168 4.768,-0.162c0.993,0.004 1.005,1.437 0.032,1.526Z" style="fill:#002265;fill-rule:nonzero;stroke:#002265;stroke-width:2px;"/><path d="M222.295,132.751c-1.657,0.164 -3.295,0.448 -4.964,0.474c-1.176,0.018 -1.157,-1.646 -0.038,-1.792c1.657,-0.217 3.314,-0.175 4.97,-0.253c1.018,-0.048 1.025,1.473 0.032,1.571Z" style="fill:#002265;fill-rule:nonzero;stroke:#002265;stroke-width:2px;"/><path d="M213.556,117.656c1.505,3.275 0.708,7.88 0.683,11.397c-0.032,4.87 -0.07,9.741 -0.145,14.611c-0.013,1.08 -1.682,1.124 -1.682,0.033c-0,-4.235 0.031,-8.469 0.063,-12.704c0.031,-3.993 0.891,-8.916 -0.152,-12.781c-0.19,-0.707 0.904,-1.283 1.233,-0.556Z" style="fill:#002265;fill-rule:nonzero;stroke:#002265;stroke-width:2px;"/><path d="M235.214,4.721c-2.043,-2.288 -5.394,-2.839 -8.278,-3.156c-0.759,-0.083 -0.974,1.21 -0.208,1.347c4.262,0.765 8.416,1.808 8.58,6.998c0.121,3.988 -0.227,8.047 -0.347,12.035c-0.121,4.021 -0.196,8.046 -0.373,12.064c-0.178,4.013 -0.133,11.763 -4.914,13.265c-3.459,1.087 -8.233,0.35 -11.831,0.371c-3.964,0.022 -7.923,0.002 -11.881,-0.071c-8.341,-0.155 -16.669,-0.557 -24.984,-1.125c-1.119,-0.076 -1.151,1.662 -0.038,1.742c10.396,0.751 20.817,1.143 31.238,1.196c5.261,0.027 10.667,0.236 15.909,-0.228c3.099,-0.274 5.065,-1.608 6.33,-4.518c1.745,-4.003 1.713,-8.769 1.846,-13.049c0.165,-5.341 0.31,-10.683 0.468,-16.024c0.101,-3.447 1.012,-8.012 -1.517,-10.847Z" style="fill:#002265;fill-rule:nonzero;stroke:#002265;stroke-width:2px;"/><path d="M137.404,46.277c2.093,2.239 5.457,2.711 8.346,2.96c0.76,0.065 0.943,-1.233 0.178,-1.351c-4.282,-0.665 -8.461,-1.61 -8.745,-6.795c-0.215,-3.984 0.037,-8.05 0.069,-12.04c0.026,-4.022 0,-8.048 0.083,-12.069c0.088,-4.017 -0.146,-11.762 4.603,-13.376c3.434,-1.169 8.22,-0.545 11.818,-0.65c3.959,-0.115 7.917,-0.189 11.882,-0.208c8.34,-0.041 16.675,0.165 25.002,0.537c1.12,0.05 1.113,-1.689 -0.006,-1.743c-10.408,-0.506 -20.835,-0.653 -31.256,-0.461c-5.261,0.097 -10.668,0.015 -15.897,0.602c-3.093,0.346 -5.027,1.727 -6.222,4.666c-1.651,4.042 -1.512,8.807 -1.544,13.089c-0.037,5.343 -0.056,10.687 -0.088,16.03c-0.019,3.447 -0.822,8.034 1.777,10.809Z" style="fill:#002265;fill-rule:nonzero;stroke:#002265;stroke-width:2px;"/><path d="M167.244,47.325c-0.158,-0.716 -1.385,-0.624 -1.315,0.146c0.632,7.112 -0.399,13.476 -3.605,19.88c-0.486,0.977 0.892,1.886 1.467,0.914c3.668,-6.174 5.04,-13.918 3.453,-20.94Z" style="fill:#002265;fill-rule:nonzero;stroke:#002265;stroke-width:2px;"/><path d="M179.897,47.738c-0.62,9.688 -8.929,15.062 -16.555,19.437c-1.024,0.587 -0.17,2.181 0.873,1.615c8.157,-4.43 17.149,-10.726 17.193,-21.023c0.007,-0.975 -1.448,-1 -1.511,-0.029Z" style="fill:#002265;fill-rule:nonzero;stroke:#002265;stroke-width:2px;"/><path d="M165.847,46.109c-6.438,0.037 -13.172,0.518 -19.495,1.773c-0.784,0.157 -0.658,1.429 0.158,1.41c6.399,-0.151 12.931,-0.768 19.299,-1.425c1.094,-0.113 1.201,-1.764 0.038,-1.758Z" style="fill:#002265;fill-rule:nonzero;stroke:#002265;stroke-width:2px;"/><path d="M226.456,2.104c-12.097,-0.746 -24.459,-1.265 -36.562,-0.392c-0.86,0.063 -0.923,1.346 -0.025,1.37c12.191,0.336 24.357,0.223 36.549,0.835c1.17,0.058 1.201,-1.74 0.038,-1.813Z" style="fill:#002265;fill-rule:nonzero;stroke:#002265;stroke-width:2px;"/><path d="M38.479,140.889c-0.286,1.238 -0.461,2.509 -0.681,3.76c-0.164,0.933 1.254,1.377 1.434,0.426c0.248,-1.314 0.543,-2.63 0.722,-3.957c0.113,-0.838 -1.285,-1.052 -1.475,-0.229Z" style="fill:#002265;fill-rule:nonzero;stroke:#002265;stroke-width:2px;"/><path d="M38.293,139.813c-2.25,0.974 -5.13,0.575 -7.522,0.594c-2.14,0.017 -4.279,0.024 -6.416,0.102c-0.9,0.034 -0.945,1.392 -0.028,1.412c2.849,0.06 5.701,0.007 8.551,-0.018c2.144,-0.019 4.138,0.095 6.115,-0.797c0.868,-0.391 0.16,-1.666 -0.7,-1.293Z" style="fill:#002265;fill-rule:nonzero;stroke:#002265;stroke-width:2px;"/><path d="M25.054,141.111c-0.456,-0.848 -1.752,-0.143 -1.311,0.71c0.678,1.314 0.785,2.699 0.602,4.151c-0.098,0.781 1.134,0.936 1.347,0.209c0.507,-1.721 0.203,-3.503 -0.638,-5.07Z" style="fill:#002265;fill-rule:nonzero;stroke:#002265;stroke-width:2px;"/><path d="M37.472,144.356c-4.242,-0.318 -8.428,-0.098 -12.608,0.693c-0.991,0.187 -0.61,1.667 0.37,1.512c4.061,-0.645 8.105,-0.829 12.205,-0.528c1.075,0.079 1.108,-1.597 0.033,-1.677Z" style="fill:#002265;fill-rule:nonzero;stroke:#002265;stroke-width:2px;"/><path d="M35.735,126.147c-0.02,-0.977 -1.546,-1.016 -1.526,-0.03c0.098,4.708 -0.243,9.368 -1.063,14.007c-0.162,0.916 1.234,1.348 1.405,0.417c0.879,-4.768 1.285,-9.543 1.184,-14.394Z" style="fill:#002265;fill-rule:nonzero;stroke:#002265;stroke-width:2px;"/><path d="M33.746,125.151c-0.973,0.538 -2.088,0.87 -3.207,0.655c-1.022,-0.197 -1.27,1.308 -0.22,1.411c1.429,0.139 2.849,-0.085 4.07,-0.879c0.719,-0.467 0.128,-1.614 -0.643,-1.187Z" style="fill:#002265;fill-rule:nonzero;stroke:#002265;stroke-width:2px;"/><path d="M29.153,126.494c-0.224,4.868 -0.32,9.743 -0.462,14.613c-0.029,0.984 1.502,1.018 1.531,0.031c0.146,-4.871 0.337,-9.743 0.401,-14.614c0.013,-0.947 -1.427,-0.976 -1.47,-0.03Z" style="fill:#002265;fill-rule:nonzero;stroke:#002265;stroke-width:2px;"/><path d="M34.094,133.296c-1.397,-0.182 -2.646,-0.535 -3.946,-1.072c-0.731,-0.301 -1.293,0.929 -0.576,1.279c1.386,0.68 2.95,1.093 4.494,1.158c0.896,0.039 0.88,-1.254 0.028,-1.365Z" style="fill:#002265;fill-rule:nonzero;stroke:#002265;stroke-width:2px;"/><path d="M33.343,130.692c-1.313,0.092 -2.362,-0.239 -3.564,-0.718c-0.726,-0.288 -1.177,0.824 -0.551,1.225c1.176,0.754 2.715,0.982 4.087,0.877c0.879,-0.066 0.921,-1.448 0.028,-1.384Z" style="fill:#002265;fill-rule:nonzero;stroke:#002265;stroke-width:2px;"/><path d="M33.717,128.43c-1.182,0.064 -2.312,-0.128 -3.371,-0.672c-0.829,-0.427 -1.605,0.813 -0.771,1.234c1.286,0.652 2.672,0.976 4.114,0.848c0.886,-0.078 0.948,-1.46 0.028,-1.41Z" style="fill:#002265;fill-rule:nonzero;stroke:#002265;stroke-width:2px;"/><path d="M11.152,144.578c-2.275,0.471 -4.672,-0.056 -6.9,-0.569c-0.043,-0.247 -0.198,-0.472 -0.481,-0.552c-0.48,-0.133 -0.838,-0.238 -1.09,-0.702c-0.152,-0.282 -0.196,-0.582 -0.124,-0.869c2.216,0.219 4.454,0.115 6.631,-0.382c1.369,-0.313 3.194,-0.868 3.352,-2.539c0.13,-1.375 -0.948,-2.034 -2.158,-2.188c-2.289,-0.291 -4.843,-0.164 -7.195,-0.052c0.021,-0.473 0.011,-0.951 -0,-1.424c0.066,0.005 0.135,0.004 0.209,-0.009c3.738,-0.669 11.654,-1.831 12.704,3.476c0.591,2.987 -2.378,5.278 -4.948,5.81Zm-8.121,-10.779c-0.211,0.039 -0.355,0.14 -0.447,0.27c-0.41,-0.08 -0.88,0.132 -0.882,0.671c-0.002,0.869 -0.076,1.787 0.048,2.652c-0.042,0.363 0.166,0.752 0.656,0.784c1.368,0.09 2.742,0.088 4.113,0.112c0.428,0.007 3.662,-0.241 3.832,0.061c0.425,0.76 -1.419,1.601 -1.878,1.696c-0.729,0.151 -1.469,0.265 -2.211,0.326c-1.396,0.115 -2.785,0.052 -4.175,-0.097c-0.476,-0.051 -0.727,0.274 -0.757,0.639c-0.869,1.383 0.076,3.708 1.681,3.961c0.065,0.174 0.201,0.324 0.444,0.391c3.173,0.871 6.789,1.641 9.933,0.228c2.36,-1.061 4.388,-3.423 4.334,-6.119c-0.145,-7.196 -10.008,-6.416 -14.691,-5.575Z" style="fill:#002265;fill-rule:nonzero;stroke:#002265;stroke-width:2px;"/><path d="M157.194,15.771c-0.742,1.236 -1.69,2.166 -2.253,3.554c-0.425,1.049 -0.806,2.096 -1.053,3.203c-0.05,0.227 -0.571,3.882 -0.512,3.862c0.714,-0.238 2.538,-2.415 3.27,-2.832c2.546,-1.449 7.141,-1.851 8.154,2.057c1.069,4.125 -1.915,7.967 -5.923,9.303c-1.651,0.55 -2.828,0.07 -4.259,-1.361" style="fill:none;stroke:#002265;stroke-width:4px;stroke-linecap:round;stroke-miterlimit:1.5;"/><path d="M166.106,13.823c-4.278,0.759 -7.59,1.692 -9.447,2.51" style="fill:none;stroke:#002265;stroke-width:4px;stroke-linecap:round;stroke-miterlimit:1.5;"/><path d="M180.398,17.117c-7.758,-4.483 -13.555,10.485 -7.589,15.142c2.269,1.77 5.511,-1.675 6.417,-3.544c2.693,-5.549 1.312,-9.971 -1.398,-11.408" style="fill:none;stroke:#002265;stroke-width:4px;stroke-linecap:round;stroke-miterlimit:1.5;"/><path d="M195.221,17.307c-8.235,-3.294 -11.818,11.969 -5.504,14.802c4.543,2.038 6.581,-4.295 7.187,-6.5c1.68,-6.106 -1.683,-8.302 -1.683,-8.302Z" style="fill:none;stroke:#002265;stroke-width:4px;stroke-linecap:round;stroke-miterlimit:1.5;"/><path d="M206.616,30.918c0.432,-0.767 -0.58,0.682 -0.886,0.241c-0.182,-0.263 0.841,-1.013 0.841,-0.436" style="fill:none;stroke:#002265;stroke-width:4px;stroke-linecap:round;stroke-miterlimit:1.5;"/><path d="M213.846,30.393c-0.247,-0.069 -0.15,-0.006 -0.406,0.165c-0.375,0.249 -1.035,-0.247 -0.676,-0.391" style="fill:none;stroke:#002265;stroke-width:4px;stroke-linecap:round;stroke-miterlimit:1.5;"/><path d="M218.981,30.882c-0.271,-0 1.201,-0.521 1.201,0.24c0,0.441 -1.378,0.97 -0.931,0.15" style="fill:none;stroke:#002265;stroke-width:4px;stroke-linecap:round;stroke-miterlimit:1.5;"/></svg>