<?xml version="1.0" encoding="UTF-8"?>
<!--
Font Awesome Free 5.13.0 by @fontawesome - https://fontawesome.com
License - https://fontawesome.com/license/free (Icons: CC BY 4.0, Fonts: SIL OFL 1.1, Code: MIT License)
-->
<svg xmlns="http://www.w3.org/2000/svg" style="display: none;">
 
<symbol id="search" viewBox="0 0 512 512">
    <path d="M505 442.7L405.3 343c-4.5-4.5-10.6-7-17-7H372c27.6-35.3 44-79.7 44-128C416 93.1 322.9 0 208 0S0 93.1 0 208s93.1 208 208 208c48.3 0 92.7-16.4 128-44v16.3c0 6.4 2.5 12.5 7 17l99.7 99.7c9.4 9.4 24.6 9.4 33.9 0l28.3-28.3c9.4-9.4 9.4-24.6.1-34zM208 336c-70.7 0-128-57.2-128-128 0-70.7 57.2-128 128-128 70.7 0 128 57.2 128 128 0 70.7-57.2 128-128 128z"></path>
</symbol>
<symbol id="sign-in-alt" viewBox="0 0 512 512">
    <path d="M416 448h-84c-6.6 0-12-5.4-12-12v-40c0-6.6 5.4-12 12-12h84c17.7 0 32-14.3 32-32V160c0-17.7-14.3-32-32-32h-84c-6.6 0-12-5.4-12-12V76c0-6.6 5.4-12 12-12h84c53 0 96 43 96 96v192c0 53-43 96-96 96zm-47-201L201 79c-15-15-41-4.5-41 17v96H24c-13.3 0-24 10.7-24 24v96c0 13.3 10.7 24 24 24h136v96c0 21.5 26 32 41 17l168-168c9.3-9.4 9.3-24.6 0-34z"></path>
</symbol>
<symbol id="sign-out-alt" viewBox="0 0 512 512">
    <path d="M497 273L329 441c-15 15-41 4.5-41-17v-96H152c-13.3 0-24-10.7-24-24v-96c0-13.3 10.7-24 24-24h136V88c0-21.4 25.9-32 41-17l168 168c9.3 9.4 9.3 24.6 0 34zM192 436v-40c0-6.6-5.4-12-12-12H96c-17.7 0-32-14.3-32-32V160c0-17.7 14.3-32 32-32h84c6.6 0 12-5.4 12-12V76c0-6.6-5.4-12-12-12H96c-53 0-96 43-96 96v192c0 53 43 96 96 96h84c6.6 0 12-5.4 12-12z"></path>
</symbol>
<symbol id="cog" viewBox="0 0 512 512">
    <path d="M487.4 315.7l-42.6-24.6c4.3-23.2 4.3-47 0-70.2l42.6-24.6c4.9-2.8 7.1-8.6 5.5-14-11.1-35.6-30-67.8-54.7-94.6-3.8-4.1-10-5.1-14.8-2.3L380.8 110c-17.9-15.4-38.5-27.3-60.8-35.1V25.8c0-5.6-3.9-10.5-9.4-11.7-36.7-8.2-74.3-7.8-109.2 0-5.5 1.2-9.4 6.1-9.4 11.7V75c-22.2 7.9-42.8 19.8-60.8 35.1L88.7 85.5c-4.9-2.8-11-1.9-14.8 2.3-24.7 26.7-43.6 58.9-54.7 94.6-1.7 5.4.6 11.2 5.5 14L67.3 221c-4.3 23.2-4.3 47 0 70.2l-42.6 24.6c-4.9 2.8-7.1 8.6-5.5 14 11.1 35.6 30 67.8 54.7 94.6 3.8 4.1 10 5.1 14.8 2.3l42.6-24.6c17.9 15.4 38.5 27.3 60.8 35.1v49.2c0 5.6 3.9 10.5 9.4 11.7 36.7 8.2 74.3 7.8 109.2 0 5.5-1.2 9.4-6.1 9.4-11.7v-49.2c22.2-7.9 42.8-19.8 60.8-35.1l42.6 24.6c4.9 2.8 11 1.9 14.8-2.3 24.7-26.7 43.6-58.9 54.7-94.6 1.5-5.5-.7-11.3-5.6-14.1zM256 336c-44.1 0-80-35.9-80-80s35.9-80 80-80 80 35.9 80 80-35.9 80-80 80z"></path>
</symbol>

<!-- Czy ikona briefcase jest używana? -->
 <symbol id="briefcase" viewBox="0 0 512 512">
    <path d="M320 336c0 8.84-7.16 16-16 16h-96c-8.84 0-16-7.16-16-16v-48H0v144c0 25.6 22.4 48 48 48h416c25.6 0 48-22.4 48-48V288H320v48zm144-208h-80V80c0-25.6-22.4-48-48-48H176c-25.6 0-48 22.4-48 48v48H48c-25.6 0-48 22.4-48 48v80h512v-80c0-25.6-22.4-48-48-48zm-144 0H192V96h128v32z"></path>
  </symbol>

<symbol id="bars" viewBox="0 0 448 512">
    <path d="M16 132h416c8.837 0 16-7.163 16-16V76c0-8.837-7.163-16-16-16H16C7.163 60 0 67.163 0 76v40c0 8.837 7.163 16 16 16zm0 160h416c8.837 0 16-7.163 16-16v-40c0-8.837-7.163-16-16-16H16c-8.837 0-16 7.163-16 16v40c0 8.837 7.163 16 16 16zm0 160h416c8.837 0 16-7.163 16-16v-40c0-8.837-7.163-16-16-16H16c-8.837 0-16 7.163-16 16v40c0 8.837 7.163 16 16 16z"></path>
</symbol>
<symbol id="newspaper" viewBox="0 0 576 512">
    <path d="M552 64H88c-13.255 0-24 10.745-24 24v8H24c-13.255 0-24 10.745-24 24v272c0 30.928 25.072 56 56 56h472c26.51 0 48-21.49 48-48V88c0-13.255-10.745-24-24-24zM56 400a8 8 0 0 1-8-8V144h16v248a8 8 0 0 1-8 8zm236-16H140c-6.627 0-12-5.373-12-12v-8c0-6.627 5.373-12 12-12h152c6.627 0 12 5.373 12 12v8c0 6.627-5.373 12-12 12zm208 0H348c-6.627 0-12-5.373-12-12v-8c0-6.627 5.373-12 12-12h152c6.627 0 12 5.373 12 12v8c0 6.627-5.373 12-12 12zm-208-96H140c-6.627 0-12-5.373-12-12v-8c0-6.627 5.373-12 12-12h152c6.627 0 12 5.373 12 12v8c0 6.627-5.373 12-12 12zm208 0H348c-6.627 0-12-5.373-12-12v-8c0-6.627 5.373-12 12-12h152c6.627 0 12 5.373 12 12v8c0 6.627-5.373 12-12 12zm0-96H140c-6.627 0-12-5.373-12-12v-40c0-6.627 5.373-12 12-12h360c6.627 0 12 5.373 12 12v40c0 6.627-5.373 12-12 12z"></path>
</symbol>
  <symbol id="guitar" viewBox="0 0 512 512">
    <path d="M502.63 39L473 9.37a32 32 0 0 0-45.26 0L381.46 55.7a35.14 35.14 0 0 0-8.53 13.79L360.77 106l-76.26 76.26c-12.16-8.76-25.5-15.74-40.1-19.14-33.45-7.78-67-.88-89.88 22a82.45 82.45 0 0 0-20.24 33.47c-6 18.56-23.21 32.69-42.15 34.46-23.7 2.27-45.73 11.45-62.61 28.44C-16.11 327-7.9 409 47.58 464.45S185 528 230.56 482.52c17-16.88 26.16-38.9 28.45-62.71 1.76-18.85 15.89-36.13 34.43-42.14a82.6 82.6 0 0 0 33.48-20.25c22.87-22.88 29.74-56.36 22-89.75-3.39-14.64-10.37-28-19.16-40.2L406 151.23l36.48-12.16a35.14 35.14 0 0 0 13.79-8.53l46.33-46.32a32 32 0 0 0 .03-45.22zM208 352a48 48 0 1 1 48-48 48 48 0 0 1-48 48z"></path>
  </symbol>
  <symbol id="map-marker-alt" viewBox="0 0 384 512">
    <path d="M172.268 501.67C26.97 291.031 0 269.413 0 192 0 85.961 85.961 0 192 0s192 85.961 192 192c0 77.413-26.97 99.031-172.268 309.67-9.535 13.774-29.93 13.773-39.464 0zM192 272c44.183 0 80-35.817 80-80s-35.817-80-80-80-80 35.817-80 80 35.817 80 80 80z"></path>
  </symbol>
  <symbol id="star-r" viewBox="0 0 576 512">
    <path d="M528.1 171.5L382 150.2 316.7 17.8c-11.7-23.6-45.6-23.9-57.4 0L194 150.2 47.9 171.5c-26.2 3.8-36.7 36.1-17.7 54.6l105.7 103-25 145.5c-4.5 26.3 23.2 46 46.4 33.7L288 439.6l130.7 68.7c23.2 12.2 50.9-7.4 46.4-33.7l-25-145.5 105.7-103c19-18.5 8.5-50.8-17.7-54.6zM388.6 312.3l23.7 138.4L288 385.4l-124.3 65.3 23.7-138.4-100.6-98 139-20.2 62.2-126 62.2 126 139 20.2-100.6 98z"></path>
  </symbol>
  <symbol id="star-s" viewBox="0 0 576 512">
    <path d="M259.3 17.8L194 150.2 47.9 171.5c-26.2 3.8-36.7 36.1-17.7 54.6l105.7 103-25 145.5c-4.5 26.3 23.2 46 46.4 33.7L288 439.6l130.7 68.7c23.2 12.2 50.9-7.4 46.4-33.7l-25-145.5 105.7-103c19-18.5 8.5-50.8-17.7-54.6L382 150.2 316.7 17.8c-11.7-23.6-45.6-23.9-57.4 0z"></path>
  </symbol>
   <symbol id="caret-down" viewBox="0 0 320 512">
    <path d="M31.3 192h257.3c17.8 0 26.7 21.5 14.1 34.1L174.1 354.8c-7.8 7.8-20.5 7.8-28.3 0L17.2 226.1C4.6 213.5 13.5 192 31.3 192z"></path>
  </symbol>
  <symbol id="caret-right" viewBox="0 0 192 512">
    <path d="M0 384.662V127.338c0-17.818 21.543-26.741 34.142-14.142l128.662 128.662c7.81 7.81 7.81 20.474 0 28.284L34.142 398.804C21.543 411.404 0 402.48 0 384.662z"></path>
  </symbol>
  <symbol id="caret-left" viewBox="0 0 192 512">
    <path d="M192 127.338v257.324c0 17.818-21.543 26.741-34.142 14.142L29.196 270.142c-7.81-7.81-7.81-20.474 0-28.284l128.662-128.662c12.599-12.6 34.142-3.676 34.142 14.142z"></path>
  </symbol>
  <symbol id="users" viewBox="0 0 640 512">
    <path d="M96 224c35.3 0 64-28.7 64-64s-28.7-64-64-64-64 28.7-64 64 28.7 64 64 64zm448 0c35.3 0 64-28.7 64-64s-28.7-64-64-64-64 28.7-64 64 28.7 64 64 64zm32 32h-64c-17.6 0-33.5 7.1-45.1 18.6 40.3 22.1 68.9 62 75.1 109.4h66c17.7 0 32-14.3 32-32v-32c0-35.3-28.7-64-64-64zm-256 0c61.9 0 112-50.1 112-112S381.9 32 320 32 208 82.1 208 144s50.1 112 112 112zm76.8 32h-8.3c-20.8 10-43.9 16-68.5 16s-47.6-6-68.5-16h-8.3C179.6 288 128 339.6 128 403.2V432c0 26.5 21.5 48 48 48h288c26.5 0 48-21.5 48-48v-28.8c0-63.6-51.6-115.2-115.2-115.2zm-223.7-13.4C161.5 263.1 145.6 256 128 256H64c-35.3 0-64 28.7-64 64v32c0 17.7 14.3 32 32 32h65.9c6.3-47.4 34.9-87.3 75.2-109.4z"></path>
  </symbol>
  <symbol id="user" viewBox="0 0 448 512">
    <path d="M224 256c70.7 0 128-57.3 128-128S294.7 0 224 0 96 57.3 96 128s57.3 128 128 128zm89.6 32h-16.7c-22.2 10.2-46.9 16-72.9 16s-50.6-5.8-72.9-16h-16.7C60.2 288 0 348.2 0 422.4V464c0 26.5 21.5 48 48 48h352c26.5 0 48-21.5 48-48v-41.6c0-74.2-60.2-134.4-134.4-134.4z"></path>
  </symbol>
   <symbol id="facebook" viewBox="0 0 512 512">
    <path d="M504 256C504 119 393 8 256 8S8 119 8 256c0 123.78 90.69 226.38 209.25 245V327.69h-63V256h63v-54.64c0-62.15 37-96.48 93.67-96.48 27.14 0 55.52 4.84 55.52 4.84v61h-31.28c-30.8 0-40.41 19.12-40.41 38.73V256h68.78l-11 71.69h-57.78V501C413.31 482.38 504 379.78 504 256z"></path>
  </symbol>
  <symbol id="facebook-f" viewBox="0 0 320 512">
    <path d="M279.14 288l14.22-92.66h-88.91v-60.13c0-25.35 12.42-50.06 52.24-50.06h40.42V6.26S260.43 0 225.36 0c-73.22 0-121.08 44.38-121.08 124.72v70.62H22.89V288h81.39v224h100.17V288z"></path>
  </symbol>
    <symbol id="twitter" viewBox="0 0 512 512">
    <path d="M459.37 151.716c.325 4.548.325 9.097.325 13.645 0 138.72-105.583 298.558-298.558 298.558-59.452 0-114.68-17.219-161.137-47.106 8.447.974 16.568 1.299 25.34 1.299 49.055 0 94.213-16.568 130.274-44.832-46.132-.975-84.792-31.188-98.112-72.772 6.498.974 12.995 1.624 19.818 1.624 9.421 0 18.843-1.3 27.614-3.573-48.081-9.747-84.143-51.98-84.143-102.985v-1.299c13.969 7.797 30.214 12.67 47.431 13.319-28.264-18.843-46.781-51.005-46.781-87.391 0-19.492 5.197-37.36 14.294-52.954 51.655 63.675 129.3 105.258 216.365 109.807-1.624-7.797-2.599-15.918-2.599-24.04 0-57.828 46.782-104.934 104.934-104.934 30.213 0 57.502 12.67 76.67 33.137 23.715-4.548 46.456-13.32 66.599-25.34-7.798 24.366-24.366 44.833-46.132 57.827 21.117-2.273 41.584-8.122 60.426-16.243-14.292 20.791-32.161 39.308-52.628 54.253z"></path>
  </symbol>
    <symbol id="instagram" viewBox="0 0 448 512">
    <path d="M224.1 141c-63.6 0-114.9 51.3-114.9 114.9s51.3 114.9 114.9 114.9S339 319.5 339 255.9 287.7 141 224.1 141zm0 189.6c-41.1 0-74.7-33.5-74.7-74.7s33.5-74.7 74.7-74.7 74.7 33.5 74.7 74.7-33.6 74.7-74.7 74.7zm146.4-194.3c0 14.9-12 26.8-26.8 26.8-14.9 0-26.8-12-26.8-26.8s12-26.8 26.8-26.8 26.8 12 26.8 26.8zm76.1 27.2c-1.7-35.9-9.9-67.7-36.2-93.9-26.2-26.2-58-34.4-93.9-36.2-37-2.1-147.9-2.1-184.9 0-35.8 1.7-67.6 9.9-93.9 36.1s-34.4 58-36.2 93.9c-2.1 37-2.1 147.9 0 184.9 1.7 35.9 9.9 67.7 36.2 93.9s58 34.4 93.9 36.2c37 2.1 147.9 2.1 184.9 0 35.9-1.7 67.7-9.9 93.9-36.2 26.2-26.2 34.4-58 36.2-93.9 2.1-37 2.1-147.8 0-184.8zM398.8 388c-7.8 19.6-22.9 34.7-42.6 42.6-29.5 11.7-99.5 9-132.1 9s-102.7 2.6-132.1-9c-19.6-7.8-34.7-22.9-42.6-42.6-11.7-29.5-9-99.5-9-132.1s-2.6-102.7 9-132.1c7.8-19.6 22.9-34.7 42.6-42.6 29.5-11.7 99.5-9 132.1-9s102.7-2.6 132.1 9c19.6 7.8 34.7 22.9 42.6 42.6 11.7 29.5 9 99.5 9 132.1s2.7 102.7-9 132.1z"></path>
  </symbol>
   <symbol id="spotify" viewBox="0 0 496 512">
    <path d="M248 8C111.1 8 0 119.1 0 256s111.1 248 248 248 248-111.1 248-248S384.9 8 248 8zm100.7 364.9c-4.2 0-6.8-1.3-10.7-3.6-62.4-37.6-135-39.2-206.7-24.5-3.9 1-9 2.6-11.9 2.6-9.7 0-15.8-7.7-15.8-15.8 0-10.3 6.1-15.2 13.6-16.8 81.9-18.1 165.6-16.5 237 26.2 6.1 3.9 9.7 7.4 9.7 16.5s-7.1 15.4-15.2 15.4zm26.9-65.6c-5.2 0-8.7-2.3-12.3-4.2-62.5-37-155.7-51.9-238.6-29.4-4.8 1.3-7.4 2.6-11.9 2.6-10.7 0-19.4-8.7-19.4-19.4s5.2-17.8 15.5-20.7c27.8-7.8 56.2-13.6 97.8-13.6 64.9 0 127.6 16.1 177 45.5 8.1 4.8 11.3 11 11.3 19.7-.1 10.8-8.5 19.5-19.4 19.5zm31-76.2c-5.2 0-8.4-1.3-12.9-3.9-71.2-42.5-198.5-52.7-280.9-29.7-3.6 1-8.1 2.6-12.9 2.6-13.2 0-23.3-10.3-23.3-23.6 0-13.6 8.4-21.3 17.4-23.9 35.2-10.3 74.6-15.2 117.5-15.2 73 0 149.5 15.2 205.4 47.8 7.8 4.5 12.9 10.7 12.9 22.6 0 13.6-11 23.3-23.2 23.3z"></path>
  </symbol>
  <symbol id="heart-r" viewBox="0 0 512 512">
    <path d="M458.4 64.3C400.6 15.7 311.3 23 256 79.3 200.7 23 111.4 15.6 53.6 64.3-21.6 127.6-10.6 230.8 43 285.5l175.4 178.7c10 10.2 23.4 15.9 37.6 15.9 14.3 0 27.6-5.6 37.6-15.8L469 285.6c53.5-54.7 64.7-157.9-10.6-221.3zm-23.6 187.5L259.4 430.5c-2.4 2.4-4.4 2.4-6.8 0L77.2 251.8c-36.5-37.2-43.9-107.6 7.3-150.7 38.9-32.7 98.9-27.8 136.5 10.5l35 35.7 35-35.7c37.8-38.5 97.8-43.2 136.5-10.6 51.1 43.1 43.5 113.9 7.3 150.8z"></path>
  </symbol>
   <symbol id="heart-s" viewBox="0 0 512 512">
    <path d="M462.3 62.6C407.5 15.9 326 24.3 275.7 76.2L256 96.5l-19.7-20.3C186.1 24.3 104.5 15.9 49.7 62.6c-62.8 53.6-66.1 149.8-9.9 207.9l193.5 199.8c12.5 12.9 32.8 12.9 45.3 0l193.5-199.8c56.3-58.1 53-154.3-9.8-207.9z"></path>
  </symbol>
   <symbol id="city" viewBox="0 0 640 512">
    <path d="M616 192H480V24c0-13.26-10.74-24-24-24H312c-13.26 0-24 10.74-24 24v72h-64V16c0-8.84-7.16-16-16-16h-16c-8.84 0-16 7.16-16 16v80h-64V16c0-8.84-7.16-16-16-16H80c-8.84 0-16 7.16-16 16v80H24c-13.26 0-24 10.74-24 24v360c0 17.67 14.33 32 32 32h576c17.67 0 32-14.33 32-32V216c0-13.26-10.75-24-24-24zM128 404c0 6.63-5.37 12-12 12H76c-6.63 0-12-5.37-12-12v-40c0-6.63 5.37-12 12-12h40c6.63 0 12 5.37 12 12v40zm0-96c0 6.63-5.37 12-12 12H76c-6.63 0-12-5.37-12-12v-40c0-6.63 5.37-12 12-12h40c6.63 0 12 5.37 12 12v40zm0-96c0 6.63-5.37 12-12 12H76c-6.63 0-12-5.37-12-12v-40c0-6.63 5.37-12 12-12h40c6.63 0 12 5.37 12 12v40zm128 192c0 6.63-5.37 12-12 12h-40c-6.63 0-12-5.37-12-12v-40c0-6.63 5.37-12 12-12h40c6.63 0 12 5.37 12 12v40zm0-96c0 6.63-5.37 12-12 12h-40c-6.63 0-12-5.37-12-12v-40c0-6.63 5.37-12 12-12h40c6.63 0 12 5.37 12 12v40zm0-96c0 6.63-5.37 12-12 12h-40c-6.63 0-12-5.37-12-12v-40c0-6.63 5.37-12 12-12h40c6.63 0 12 5.37 12 12v40zm160 96c0 6.63-5.37 12-12 12h-40c-6.63 0-12-5.37-12-12v-40c0-6.63 5.37-12 12-12h40c6.63 0 12 5.37 12 12v40zm0-96c0 6.63-5.37 12-12 12h-40c-6.63 0-12-5.37-12-12v-40c0-6.63 5.37-12 12-12h40c6.63 0 12 5.37 12 12v40zm0-96c0 6.63-5.37 12-12 12h-40c-6.63 0-12-5.37-12-12V76c0-6.63 5.37-12 12-12h40c6.63 0 12 5.37 12 12v40zm160 288c0 6.63-5.37 12-12 12h-40c-6.63 0-12-5.37-12-12v-40c0-6.63 5.37-12 12-12h40c6.63 0 12 5.37 12 12v40zm0-96c0 6.63-5.37 12-12 12h-40c-6.63 0-12-5.37-12-12v-40c0-6.63 5.37-12 12-12h40c6.63 0 12 5.37 12 12v40z"></path>
  </symbol>
   <symbol id="times" viewBox="0 0 352 512">
    <path d="M242.72 256l100.07-100.07c12.28-12.28 12.28-32.19 0-44.48l-22.24-22.24c-12.28-12.28-32.19-12.28-44.48 0L176 189.28 75.93 89.21c-12.28-12.28-32.19-12.28-44.48 0L9.21 111.45c-12.28 12.28-12.28 32.19 0 44.48L109.28 256 9.21 356.07c-12.28 12.28-12.28 32.19 0 44.48l22.24 22.24c12.28 12.28 32.2 12.28 44.48 0L176 322.72l100.07 100.07c12.28 12.28 32.2 12.28 44.48 0l22.24-22.24c12.28-12.28 12.28-32.19 0-44.48L242.72 256z"></path>
  </symbol>
    <symbol id="calendar-alt-r" viewBox="0 0 448 512">
    <path d="M148 288h-40c-6.6 0-12-5.4-12-12v-40c0-6.6 5.4-12 12-12h40c6.6 0 12 5.4 12 12v40c0 6.6-5.4 12-12 12zm108-12v-40c0-6.6-5.4-12-12-12h-40c-6.6 0-12 5.4-12 12v40c0 6.6 5.4 12 12 12h40c6.6 0 12-5.4 12-12zm96 0v-40c0-6.6-5.4-12-12-12h-40c-6.6 0-12 5.4-12 12v40c0 6.6 5.4 12 12 12h40c6.6 0 12-5.4 12-12zm-96 96v-40c0-6.6-5.4-12-12-12h-40c-6.6 0-12 5.4-12 12v40c0 6.6 5.4 12 12 12h40c6.6 0 12-5.4 12-12zm-96 0v-40c0-6.6-5.4-12-12-12h-40c-6.6 0-12 5.4-12 12v40c0 6.6 5.4 12 12 12h40c6.6 0 12-5.4 12-12zm192 0v-40c0-6.6-5.4-12-12-12h-40c-6.6 0-12 5.4-12 12v40c0 6.6 5.4 12 12 12h40c6.6 0 12-5.4 12-12zm96-260v352c0 26.5-21.5 48-48 48H48c-26.5 0-48-21.5-48-48V112c0-26.5 21.5-48 48-48h48V12c0-6.6 5.4-12 12-12h40c6.6 0 12 5.4 12 12v52h128V12c0-6.6 5.4-12 12-12h40c6.6 0 12 5.4 12 12v52h48c26.5 0 48 21.5 48 48zm-48 346V160H48v298c0 3.3 2.7 6 6 6h340c3.3 0 6-2.7 6-6z"></path>
  </symbol>
   <symbol id="clock-r" viewBox="0 0 512 512">
    <path d="M256 8C119 8 8 119 8 256s111 248 248 248 248-111 248-248S393 8 256 8zm0 448c-110.5 0-200-89.5-200-200S145.5 56 256 56s200 89.5 200 200-89.5 200-200 200zm61.8-104.4l-84.9-61.7c-3.1-2.3-4.9-5.9-4.9-9.7V116c0-6.6 5.4-12 12-12h32c6.6 0 12 5.4 12 12v141.7l66.8 48.6c5.4 3.9 6.5 11.4 2.6 16.8L334.6 349c-3.9 5.3-11.4 6.5-16.8 2.6z"></path>
  </symbol>
   <symbol id="bell-r" viewBox="0 0 448 512">
    <path d="M439.39 362.29c-19.32-20.76-55.47-51.99-55.47-154.29 0-77.7-54.48-139.9-127.94-155.16V32c0-17.67-14.32-32-31.98-32s-31.98 14.33-31.98 32v20.84C118.56 68.1 64.08 130.3 64.08 208c0 102.3-36.15 133.53-55.47 154.29-6 6.45-8.66 14.16-8.61 21.71.11 16.4 12.98 32 32.1 32h383.8c19.12 0 32-15.6 32.1-32 .05-7.55-2.61-15.27-8.61-21.71zM67.53 368c21.22-27.97 44.42-74.33 44.53-159.42 0-.2-.06-.38-.06-.58 0-61.86 50.14-112 112-112s112 50.14 112 112c0 .2-.06.38-.06.58.11 85.1 23.31 131.46 44.53 159.42H67.53zM224 512c35.32 0 63.97-28.65 63.97-64H160.03c0 35.35 28.65 64 63.97 64z"></path>
  </symbol>
   <symbol id="bell-s" viewBox="0 0 448 512">
    <path d="M224 512c35.32 0 63.97-28.65 63.97-64H160.03c0 35.35 28.65 64 63.97 64zm215.39-149.71c-19.32-20.76-55.47-51.99-55.47-154.29 0-77.7-54.48-139.9-127.94-155.16V32c0-17.67-14.32-32-31.98-32s-31.98 14.33-31.98 32v20.84C118.56 68.1 64.08 130.3 64.08 208c0 102.3-36.15 133.53-55.47 154.29-6 6.45-8.66 14.16-8.61 21.71.11 16.4 12.98 32 32.1 32h383.8c19.12 0 32-15.6 32.1-32 .05-7.55-2.61-15.27-8.61-21.71z"></path>
  </symbol>
  <symbol id="bell-check" viewBox="0 0 145 166">
	<path d="M141.59,116.755c1.935,2.15 2.903,4.569 2.903,7.257c-0,2.688 -0.968,5.053 -2.903,7.096c-1.935,2.042 -4.408,3.064 -7.418,3.064l-123.851,-0c-3.01,-0 -5.483,-1.022 -7.418,-3.064c-1.935,-2.043 -2.903,-4.408 -2.903,-7.096c0,-2.688 0.968,-5.107 2.903,-7.257l0.967,-1.29c4.946,-5.16 8.601,-10.213 10.966,-15.159c3.871,-8.6 5.806,-19.674 5.806,-33.22c-0,-12.471 3.87,-23.33 11.611,-32.575c7.74,-9.246 17.631,-15.052 29.672,-17.417l0,-6.773c0,-2.795 1.022,-5.214 3.064,-7.257c2.043,-2.043 4.462,-3.064 7.257,-3.064c2.796,0 5.215,1.021 7.257,3.064c2.043,2.043 3.064,4.462 3.064,7.257l0,6.773c12.041,2.365 21.932,8.171 29.673,17.417c7.74,9.245 11.611,20.104 11.611,32.575c-0,13.546 1.935,24.62 5.805,33.22c2.366,4.946 6.021,9.999 10.966,15.159c0.43,0.645 0.753,1.075 0.968,1.29Zm-119.658,1.935l100.629,0c-9.461,-12.686 -14.192,-29.78 -14.192,-51.282l0,-0.322c0,-6.451 -1.612,-12.471 -4.837,-18.062c-3.226,-5.59 -7.634,-9.998 -13.224,-13.223c-5.591,-3.226 -11.611,-4.838 -18.062,-4.838c-6.45,-0 -12.471,1.612 -18.061,4.838c-5.591,3.225 -9.999,7.633 -13.224,13.223c-3.225,5.591 -4.838,11.611 -4.838,18.062l0,0.322c0,21.502 -4.73,38.596 -14.191,51.282Zm50.314,46.444c-5.59,0 -10.428,-1.989 -14.513,-5.966c-4.086,-3.978 -6.128,-8.87 -6.128,-14.675l41.283,-0c0,5.805 -2.043,10.697 -6.128,14.675c-4.085,3.977 -8.923,5.966 -14.514,5.966Z" style="fill:#b9bbcb;fill-rule:nonzero;"/><path d="M96.908,66.001c0.613,0.613 0.919,1.357 0.919,2.232c0,0.875 -0.306,1.619 -0.919,2.232l-28.223,28.223c-0.612,0.612 -1.356,0.918 -2.231,0.918c-0.875,0 -1.619,-0.306 -2.232,-0.918l-16.343,-16.343c-0.612,-0.613 -0.919,-1.357 -0.919,-2.232c0,-0.875 0.307,-1.619 0.919,-2.232l4.463,-4.463c0.613,-0.612 1.357,-0.919 2.232,-0.919c0.875,0 1.619,0.307 2.232,0.919l9.648,9.681l21.528,-21.561c0.613,-0.612 1.357,-0.919 2.232,-0.919c0.875,0 1.619,0.307 2.231,0.919l4.463,4.463Z" style="fill:#1cb307;fill-rule:nonzero;"/>
</symbol>
<symbol id="email-refresh" viewBox="0 0 144 110" style="fill-rule:evenodd;clip-rule:evenodd;stroke-linejoin:round;stroke-miterlimit:2;"><path d="M96.56,107.806l-83.084,0c-7.443,0 -13.476,-6.033 -13.476,-13.476l0,-80.854c0,-7.443 6.033,-13.476 13.476,-13.476l116.79,0c7.442,0 13.475,6.033 13.475,13.476l0,50.356c-4.127,-1.665 -8.639,-2.582 -13.365,-2.582l-0.11,0l-0,-19.026c-6.434,5.124 -15.559,12.316 -29.464,23.204c-6.329,4.983 -16.939,15.491 -28.931,15.426c-12.052,0.065 -22.798,-10.598 -28.934,-15.428c-13.905,-10.889 -23.028,-18.079 -29.461,-23.202l-0,52.106l81.359,0c-0.051,0.773 -0.076,1.551 -0.076,2.335c-0,3.892 0.632,7.638 1.801,11.141Zm33.706,-94.33l-0,11.455c-6.295,5.127 -16.331,13.098 -37.785,29.897c-4.728,3.719 -14.094,12.654 -20.61,12.55c-6.516,0.105 -15.885,-8.832 -20.611,-12.55c-21.451,-16.797 -31.489,-24.769 -37.784,-29.897l-0,-11.455l116.79,-0Z" style="fill:#b9bbcb;"/><path d="M143.362,94.708c0,0.082 -0.008,0.14 -0.025,0.173c-1.059,4.437 -3.278,8.034 -6.655,10.79c-3.377,2.757 -7.334,4.135 -11.87,4.135c-2.417,0 -4.756,-0.455 -7.015,-1.366c-2.26,-0.91 -4.276,-2.21 -6.047,-3.899l-3.204,3.204c-0.314,0.314 -0.687,0.472 -1.117,0.472c-0.431,-0 -0.803,-0.158 -1.118,-0.472c-0.314,-0.315 -0.472,-0.687 -0.472,-1.118l0,-11.125c0,-0.43 0.158,-0.803 0.472,-1.117c0.315,-0.315 0.687,-0.472 1.118,-0.472l11.125,-0c0.43,-0 0.803,0.157 1.117,0.472c0.315,0.314 0.472,0.687 0.472,1.117c0,0.431 -0.157,0.803 -0.472,1.118l-3.402,3.402c1.176,1.093 2.508,1.937 3.998,2.533c1.49,0.596 3.038,0.894 4.644,0.894c2.219,-0 4.288,-0.538 6.208,-1.614c1.921,-1.076 3.461,-2.558 4.619,-4.445c0.183,-0.282 0.621,-1.25 1.317,-2.906c0.132,-0.381 0.38,-0.571 0.745,-0.571l4.767,-0c0.216,-0 0.402,0.079 0.559,0.236c0.158,0.157 0.236,0.343 0.236,0.559Zm0.621,-19.867l-0,11.125c-0,0.431 -0.157,0.803 -0.472,1.118c-0.314,0.314 -0.687,0.472 -1.117,0.472l-11.126,-0c-0.43,-0 -0.802,-0.158 -1.117,-0.472c-0.315,-0.315 -0.472,-0.687 -0.472,-1.118c0,-0.43 0.157,-0.803 0.472,-1.117l3.427,-3.427c-2.45,-2.268 -5.339,-3.402 -8.667,-3.402c-2.218,-0 -4.288,0.538 -6.208,1.614c-1.921,1.076 -3.46,2.558 -4.619,4.445c-0.182,0.281 -0.621,1.25 -1.316,2.906c-0.133,0.38 -0.381,0.571 -0.745,0.571l-4.942,-0c-0.215,-0 -0.401,-0.079 -0.559,-0.236c-0.157,-0.158 -0.236,-0.344 -0.236,-0.559l0,-0.174c1.076,-4.437 3.311,-8.033 6.705,-10.79c3.394,-2.756 7.367,-4.134 11.92,-4.134c2.417,-0 4.768,0.459 7.053,1.378c2.284,0.919 4.312,2.214 6.084,3.886l3.228,-3.203c0.315,-0.315 0.687,-0.472 1.118,-0.472c0.43,-0 0.803,0.157 1.117,0.472c0.315,0.314 0.472,0.687 0.472,1.117Z" style="fill:#1cb307;fill-rule:nonzero;"/></symbol>
  <symbol id="calendar-check-r" viewBox="0 0 448 512">
    <path d="M400 64h-48V12c0-6.627-5.373-12-12-12h-40c-6.627 0-12 5.373-12 12v52H160V12c0-6.627-5.373-12-12-12h-40c-6.627 0-12 5.373-12 12v52H48C21.49 64 0 85.49 0 112v352c0 26.51 21.49 48 48 48h352c26.51 0 48-21.49 48-48V112c0-26.51-21.49-48-48-48zm-6 400H54a6 6 0 0 1-6-6V160h352v298a6 6 0 0 1-6 6zm-52.849-200.65L198.842 404.519c-4.705 4.667-12.303 4.637-16.971-.068l-75.091-75.699c-4.667-4.705-4.637-12.303.068-16.971l22.719-22.536c4.705-4.667 12.303-4.637 16.97.069l44.104 44.461 111.072-110.181c4.705-4.667 12.303-4.637 16.971.068l22.536 22.718c4.667 4.705 4.636 12.303-.069 16.97z"></path>
  </symbol>
  <symbol id="ticket-alt-s" viewBox="0 0 576 512">
    <path d="M128 160h320v192H128V160zm400 96c0 26.51 21.49 48 48 48v96c0 26.51-21.49 48-48 48H48c-26.51 0-48-21.49-48-48v-96c26.51 0 48-21.49 48-48s-21.49-48-48-48v-96c0-26.51 21.49-48 48-48h480c26.51 0 48 21.49 48 48v96c-26.51 0-48 21.49-48 48zm-48-104c0-13.255-10.745-24-24-24H120c-13.255 0-24 10.745-24 24v208c0 13.255 10.745 24 24 24h336c13.255 0 24-10.745 24-24V152z"></path>
  </symbol>
   <symbol id="hand-point-right-s" viewBox="0 0 512 512">
    <path d="M512 199.652c0 23.625-20.65 43.826-44.8 43.826h-99.851c16.34 17.048 18.346 49.766-6.299 70.944 14.288 22.829 2.147 53.017-16.45 62.315C353.574 425.878 322.654 448 272 448c-2.746 0-13.276-.203-16-.195-61.971.168-76.894-31.065-123.731-38.315C120.596 407.683 112 397.599 112 385.786V214.261l.002-.001c.011-18.366 10.607-35.889 28.464-43.845 28.886-12.994 95.413-49.038 107.534-77.323 7.797-18.194 21.384-29.084 40-29.092 34.222-.014 57.752 35.098 44.119 66.908-3.583 8.359-8.312 16.67-14.153 24.918H467.2c23.45 0 44.8 20.543 44.8 43.826zM96 200v192c0 13.255-10.745 24-24 24H24c-13.255 0-24-10.745-24-24V200c0-13.255 10.745-24 24-24h48c13.255 0 24 10.745 24 24zM68 368c0-11.046-8.954-20-20-20s-20 8.954-20 20 8.954 20 20 20 20-8.954 20-20z"></path>
  </symbol>
    <symbol id="pencil-alt" viewBox="0 0 512 512">
    <path d="M497.9 142.1l-46.1 46.1c-4.7 4.7-12.3 4.7-17 0l-111-111c-4.7-4.7-4.7-12.3 0-17l46.1-46.1c18.7-18.7 49.1-18.7 67.9 0l60.1 60.1c18.8 18.7 18.8 49.1 0 67.9zM284.2 99.8L21.6 362.4.4 483.9c-2.9 16.4 11.4 30.6 27.8 27.8l121.5-21.3 262.6-262.6c4.7-4.7 4.7-12.3 0-17l-111-111c-4.8-4.7-12.4-4.7-17.1 0zM124.1 339.9c-5.5-5.5-5.5-14.3 0-19.8l154-154c5.5-5.5 14.3-5.5 19.8 0s5.5 14.3 0 19.8l-154 154c-5.5 5.5-14.3 5.5-19.8 0zM88 424h48v36.3l-64.5 11.3-31.1-31.1L51.7 376H88v48z"></path>
  </symbol>
  <symbol id="utensils" viewBox="0 0 416 512">
    <path d="M207.9 15.2c.8 4.7 16.1 94.5 16.1 128.8 0 52.3-27.8 89.6-68.9 104.6L168 486.7c.7 13.7-10.2 25.3-24 25.3H80c-13.7 0-24.7-11.5-24-25.3l12.9-238.1C27.7 233.6 0 196.2 0 144 0 109.6 15.3 19.9 16.1 15.2 19.3-5.1 61.4-5.4 64 16.3v141.2c1.3 3.4 15.1 3.2 16 0 1.4-25.3 7.9-139.2 8-141.8 3.3-20.8 44.7-20.8 47.9 0 .2 2.7 6.6 116.5 8 141.8.9 3.2 14.8 3.4 16 0V16.3c2.6-21.6 44.8-21.4 48-1.1zm119.2 285.7l-15 185.1c-1.2 14 9.9 26 23.9 26h56c13.3 0 24-10.7 24-24V24c0-13.2-10.7-24-24-24-82.5 0-221.4 178.5-64.9 300.9z"></path>
  </symbol>
   <symbol id="hotel" viewBox="0 0 576 512">
    <path d="M560 64c8.84 0 16-7.16 16-16V16c0-8.84-7.16-16-16-16H16C7.16 0 0 7.16 0 16v32c0 8.84 7.16 16 16 16h15.98v384H16c-8.84 0-16 7.16-16 16v32c0 8.84 7.16 16 16 16h240v-80c0-8.8 7.2-16 16-16h32c8.8 0 16 7.2 16 16v80h240c8.84 0 16-7.16 16-16v-32c0-8.84-7.16-16-16-16h-16V64h16zm-304 44.8c0-6.4 6.4-12.8 12.8-12.8h38.4c6.4 0 12.8 6.4 12.8 12.8v38.4c0 6.4-6.4 12.8-12.8 12.8h-38.4c-6.4 0-12.8-6.4-12.8-12.8v-38.4zm0 96c0-6.4 6.4-12.8 12.8-12.8h38.4c6.4 0 12.8 6.4 12.8 12.8v38.4c0 6.4-6.4 12.8-12.8 12.8h-38.4c-6.4 0-12.8-6.4-12.8-12.8v-38.4zm-128-96c0-6.4 6.4-12.8 12.8-12.8h38.4c6.4 0 12.8 6.4 12.8 12.8v38.4c0 6.4-6.4 12.8-12.8 12.8h-38.4c-6.4 0-12.8-6.4-12.8-12.8v-38.4zM179.2 256h-38.4c-6.4 0-12.8-6.4-12.8-12.8v-38.4c0-6.4 6.4-12.8 12.8-12.8h38.4c6.4 0 12.8 6.4 12.8 12.8v38.4c0 6.4-6.4 12.8-12.8 12.8zM192 384c0-53.02 42.98-96 96-96s96 42.98 96 96H192zm256-140.8c0 6.4-6.4 12.8-12.8 12.8h-38.4c-6.4 0-12.8-6.4-12.8-12.8v-38.4c0-6.4 6.4-12.8 12.8-12.8h38.4c6.4 0 12.8 6.4 12.8 12.8v38.4zm0-96c0 6.4-6.4 12.8-12.8 12.8h-38.4c-6.4 0-12.8-6.4-12.8-12.8v-38.4c0-6.4 6.4-12.8 12.8-12.8h38.4c6.4 0 12.8 6.4 12.8 12.8v38.4z"></path>
  </symbol>
   <symbol id="bullhorn" viewBox="0 0 18 16">
    <path d="M18,7.5c0,-0.738 -0.405,-1.376 -1,-1.723l0,-4.777c0,-0.273 -0.218,-1 -1,-1c-0.223,-0 -0.443,0.074 -0.624,0.219l-2.658,2.126c-1.334,1.067 -3.01,1.655 -4.718,1.655l-6,-0c-1.105,-0 -2,0.895 -2,2l0,3c0,1.105 0.895,2 2,2l1.053,-0c-0.043,0.328 -0.068,0.661 -0.068,1c-0,1.243 0.289,2.417 0.799,3.467c0.162,0.334 0.516,0.533 0.887,0.533l2.321,-0c0.815,-0 1.303,-0.932 0.81,-1.58c-0.513,-0.673 -0.817,-1.511 -0.817,-2.42c-0,-0.347 0.05,-0.681 0.137,-1l0.878,-0c1.708,-0 3.384,0.588 4.718,1.655l2.657,2.126c0.171,0.136 0.389,0.219 0.625,0.219c0.778,-0 1,-0.712 1,-1l-0,-4.777c0.595,-0.347 1,-0.985 1,-1.723Zm-3,4.419l-1.033,-0.826c-1.687,-1.35 -3.807,-2.093 -5.967,-2.093l0,-3c2.16,-0 4.28,-0.743 5.967,-2.093l1.033,-0.826l0,8.838Z" />
  </symbol>
  <symbol id="edit" viewBox="0 0 18 16">
    <path d="M12.581,2.597c-0.119,-0.119 -0.312,-0.119 -0.431,-0l-6.825,6.825l-0.322,2.9c-0.044,0.387 0.285,0.715 0.672,0.672l2.9,-0.322l6.825,-6.825c0.119,-0.119 0.119,-0.313 -0,-0.431l-2.819,-2.819Zm5.063,-0.716l-1.525,-1.525c-0.475,-0.475 -1.247,-0.475 -1.725,0l-1.106,1.107c-0.119,0.118 -0.119,0.312 -0,0.431l2.818,2.819c0.119,0.118 0.313,0.118 0.432,-0l1.106,-1.107c0.475,-0.478 0.475,-1.25 -0,-1.725Zm-5.644,8.935l0,3.181l-10,-0l0,-10l7.181,-0c0.1,-0 0.194,-0.041 0.266,-0.109l1.25,-1.25c0.237,-0.238 0.069,-0.641 -0.266,-0.641l-8.931,-0c-0.828,-0 -1.5,0.672 -1.5,1.5l0,11c0,0.828 0.672,1.5 1.5,1.5l11,-0c0.828,-0 1.5,-0.672 1.5,-1.5l0,-4.931c0,-0.335 -0.403,-0.5 -0.641,-0.266l-1.25,1.25c-0.068,0.072 -0.109,0.166 -0.109,0.266Z" />
  </symbol>
  <symbol id="crown" viewBox="0 0 20 16">
    <path d="M16.5,14l-13,0c-0.275,0 -0.5,0.225 -0.5,0.5l0,1c0,0.275 0.225,0.5 0.5,0.5l13,0c0.275,0 0.5,-0.225 0.5,-0.5l0,-1c0,-0.275 -0.225,-0.5 -0.5,-0.5Zm2,-10c-0.828,0 -1.5,0.672 -1.5,1.5c0,0.222 0.05,0.428 0.138,0.619l-2.263,1.356c-0.481,0.288 -1.103,0.125 -1.381,-0.363l-2.547,-4.456c0.334,-0.275 0.553,-0.687 0.553,-1.156c0,-0.828 -0.672,-1.5 -1.5,-1.5c-0.828,0 -1.5,0.672 -1.5,1.5c0,0.469 0.219,0.881 0.553,1.156l-2.547,4.456c-0.278,0.488 -0.903,0.651 -1.381,0.363l-2.259,-1.356c0.084,-0.188 0.137,-0.397 0.137,-0.619c0,-0.828 -0.672,-1.5 -1.5,-1.5c-0.828,0 -1.503,0.672 -1.503,1.5c0,0.828 0.672,1.5 1.5,1.5c0.081,0 0.163,-0.013 0.241,-0.025l2.259,6.025l12,0l2.259,-6.025c0.078,0.012 0.16,0.025 0.241,0.025c0.828,0 1.5,-0.672 1.5,-1.5c0,-0.828 -0.672,-1.5 -1.5,-1.5Z" />
  </symbol>
  <symbol id="telescope" viewBox="0 0 24 24">
   <path d="M19.114,0.5c-0.275,-0.478 -0.888,-0.642 -1.366,-0.366l-2.274,1.313c-0.478,0.276 -0.642,0.888 -0.366,1.366l4.132,7.156c0.276,0.478 0.888,0.642 1.366,0.366l2.274,-1.312c0.478,-0.276 0.642,-0.889 0.366,-1.367l-4.132,-7.156Z" /><path d="M1.44,13.557c-0.138,-0.239 -0.444,-0.321 -0.683,-0.183l-0.507,0.293c-0.239,0.138 -0.321,0.444 -0.183,0.683l1.656,2.868c0.138,0.239 0.444,0.321 0.683,0.183l0.507,-0.292c0.239,-0.138 0.321,-0.444 0.183,-0.683l-1.656,-2.869Z" /><path d="M8.79,15.033c-0.119,-0.327 -0.184,-0.681 -0.184,-1.049c-0,-1.695 1.376,-3.071 3.071,-3.071c1.158,-0 2.167,0.642 2.69,1.589l3.427,-1.555c0.128,-0.058 0.226,-0.168 0.269,-0.303c0.043,-0.134 0.028,-0.28 -0.043,-0.402c-0.77,-1.335 -2.941,-5.095 -3.712,-6.43c-0.071,-0.122 -0.189,-0.209 -0.327,-0.239c-0.138,-0.029 -0.283,0.001 -0.397,0.083c-1.931,1.384 -9.517,6.824 -11.282,8.089c-0.209,0.15 -0.27,0.434 -0.141,0.657c0.526,0.911 1.826,3.164 2.353,4.076c0.129,0.222 0.405,0.311 0.64,0.205l3.636,-1.65Z" /><path d="M10.191,15.426c-0.362,-0.373 -0.585,-0.881 -0.585,-1.442c-0,-1.143 0.928,-2.071 2.071,-2.071c1.143,-0 2.072,0.928 2.072,2.071c-0,0.565 -0.227,1.077 -0.593,1.45l2.839,6.743c0.171,0.407 -0.02,0.877 -0.427,1.048c-0.407,0.172 -0.876,-0.02 -1.047,-0.427l-2.84,-6.742l-0.019,-0l-2.885,6.746c-0.174,0.406 -0.644,0.595 -1.05,0.421c-0.406,-0.173 -0.595,-0.644 -0.421,-1.05l2.885,-6.747Z" />
  </symbol>

</svg>
