<?xml version="1.0" encoding="UTF-8" standalone="no"?><!DOCTYPE svg PUBLIC "-//W3C//DTD SVG 1.1//EN" "http://www.w3.org/Graphics/SVG/1.1/DTD/svg11.dtd"><svg width="100%" height="100%" viewBox="0 0 341 231" version="1.1" xmlns="http://www.w3.org/2000/svg" xmlns:xlink="http://www.w3.org/1999/xlink" xml:space="preserve" xmlns:serif="http://www.serif.com/" style="fill-rule:evenodd;clip-rule:evenodd;stroke-linejoin:round;stroke-miterlimit:2;"><path d="M340.143,99.707l-0,46.111c-43.968,16.093 -78.942,46.68 -107.257,85.158l-53.028,0c38.316,-63.228 90.062,-112.796 160.285,-131.269Zm-0,-51.362c-79.731,11.188 -160.569,65.158 -200.941,148.092c-2.408,4.939 -3.155,8.227 -6.556,11.607c-8.089,8.035 -22.828,5.629 -32.866,-5.363c-10.04,-10.994 -12.772,-22.193 -7.705,-32.906c13.696,-28.889 29.722,-56.174 61.169,-87.413c42.77,-42.487 95.758,-71.146 151.661,-82.362l35.238,-0l-0,48.345Zm-169.7,-48.345c-48.222,34.224 -89.597,80.597 -111.731,127.087c-1.783,3.73 -3.684,8.753 -7.312,12.357c-9.978,9.912 -27.278,6.915 -39.756,-6.749c-12.76,-13.971 -13.634,-28.19 -9.271,-37.62c15.417,-33.676 37.655,-65.369 65.966,-95.075l102.104,-0Z" style="fill:#c8f9d9;fill-opacity:0.15;fill-rule:nonzero;"/></svg>