<?xml version="1.0" encoding="UTF-8" standalone="no"?><!DOCTYPE svg PUBLIC "-//W3C//DTD SVG 1.1//EN" "http://www.w3.org/Graphics/SVG/1.1/DTD/svg11.dtd"><svg width="100%" height="100%" viewBox="0 0 69 50" version="1.1" xmlns="http://www.w3.org/2000/svg" xmlns:xlink="http://www.w3.org/1999/xlink" xml:space="preserve" xmlns:serif="http://www.serif.com/" style="fill-rule:evenodd;clip-rule:evenodd;stroke-linejoin:round;stroke-miterlimit:2;"><rect id="Artboard1" x="0" y="0" width="68.643" height="50" style="fill:none;"/><clipPath id="_clip1"><rect x="0" y="0" width="68.643" height="50"/></clipPath><g clip-path="url(#_clip1)"><path d="M20.698,27.653c-0.14,-0.139 -0.366,-0.139 -0.506,0l-0.787,0.788c-0.14,0.14 -0.14,0.366 0,0.505l1.649,1.65c0.14,0.139 0.366,0.139 0.506,0l0.788,-0.788c0.139,-0.14 0.139,-0.365 0,-0.505l-1.65,-1.65Z" style="fill:#002265;fill-rule:nonzero;"/><path d="M48.045,27.653c-0.14,-0.139 -0.366,-0.139 -0.505,0l-1.65,1.65c-0.14,0.14 -0.14,0.365 0,0.505l0.788,0.788c0.139,0.139 0.366,0.139 0.505,0l1.649,-1.65c0.14,-0.139 0.14,-0.365 0,-0.505l-0.787,-0.788Z" style="fill:#002265;fill-rule:nonzero;"/><path d="M54.599,29.018c-3.277,0.415 -4.598,1.211 -5.443,2.056c-0.841,0.841 -1.637,2.162 -2.051,5.437c-0.044,0.351 -0.52,0.428 -0.675,0.11l-4.861,-10.005c-0.176,-0.363 0.29,-0.694 0.574,-0.409l1.568,1.568c0.139,0.139 0.366,0.139 0.505,0l1.65,-1.65c0.139,-0.14 0.139,-0.366 0,-0.505l-1.563,-1.562c-0.285,-0.285 0.046,-0.75 0.409,-0.574l9.996,4.859c0.318,0.155 0.241,0.631 -0.109,0.675m-28.08,-2.402l-4.862,10.005c-0.154,0.318 -0.63,0.241 -0.675,-0.11c-0.413,-3.275 -1.21,-4.596 -2.05,-5.437c-0.845,-0.845 -2.167,-1.641 -5.443,-2.056c-0.351,-0.044 -0.428,-0.52 -0.11,-0.675l9.997,-4.859c0.362,-0.176 0.693,0.289 0.408,0.574l-1.562,1.562c-0.139,0.139 -0.139,0.365 0,0.505l1.649,1.65c0.14,0.139 0.366,0.139 0.505,0l1.569,-1.568c0.285,-0.285 0.749,0.046 0.574,0.409m41.366,4.751l-31.679,-15.406l-0.007,-0.008l5.107,-5.108c0.304,-0.304 0.686,-0.516 1.105,-0.612l1.389,-0.322c0.505,-0.117 0.969,-0.374 1.336,-0.742l2.883,-2.882c0.298,-0.298 0.302,-0.776 0,-1.078c-0.298,-0.297 -0.78,-0.297 -1.077,0l-1.831,1.831c0.297,-0.296 0.301,-0.775 0,-1.077c-0.298,-0.297 -0.781,-0.297 -1.077,0c0.296,-0.297 0.301,-0.776 0,-1.077c-0.298,-0.298 -0.781,-0.298 -1.079,0l2.587,-2.586c0.297,-0.297 0.301,-0.775 0,-1.077c-0.298,-0.297 -0.781,-0.297 -1.078,0l-3.637,3.637c-0.366,0.367 -0.625,0.832 -0.737,1.34l-0.324,1.389c-0.098,0.416 -0.31,0.796 -0.612,1.099l-5.11,5.11l-5.11,-5.11c-0.302,-0.303 -0.514,-0.683 -0.611,-1.099l-0.326,-1.389c-0.112,-0.508 -0.37,-0.973 -0.737,-1.34l-3.636,-3.637c-0.298,-0.297 -0.78,-0.297 -1.078,0c-0.301,0.302 -0.297,0.78 0,1.077l2.586,2.586c-0.298,-0.298 -0.78,-0.298 -1.078,0c-0.301,0.301 -0.297,0.78 0,1.077c-0.297,-0.297 -0.78,-0.297 -1.077,0c-0.302,0.302 -0.297,0.781 0,1.077l-1.831,-1.831c-0.298,-0.297 -0.78,-0.297 -1.078,0c-0.301,0.302 -0.297,0.78 0,1.078l2.883,2.882c0.367,0.368 0.831,0.625 1.337,0.742l1.389,0.322c0.418,0.096 0.801,0.308 1.105,0.612l5.107,5.108l-0.008,0.008l-31.679,15.406c-0.353,0.171 -0.212,0.704 0.18,0.677c4.264,-0.294 14.436,-0.773 16.395,1.184c1.955,1.955 1.474,12.126 1.179,16.391c-0.027,0.391 0.507,0.532 0.678,0.179l15.402,-31.682l0.008,-0.008l0.008,0.008l15.402,31.682c0.171,0.353 0.704,0.212 0.677,-0.179c-0.295,-4.265 -0.774,-14.436 1.18,-16.391c1.958,-1.957 12.131,-1.478 16.395,-1.184c0.392,0.027 0.532,-0.506 0.179,-0.677" style="fill:#002265;fill-rule:nonzero;"/></g></svg>