<?xml version="1.0" encoding="UTF-8" standalone="no"?><!DOCTYPE svg PUBLIC "-//W3C//DTD SVG 1.1//EN" "http://www.w3.org/Graphics/SVG/1.1/DTD/svg11.dtd"><svg width="100%" height="100%" viewBox="0 0 208 50" version="1.1" xmlns="http://www.w3.org/2000/svg" xmlns:xlink="http://www.w3.org/1999/xlink" xml:space="preserve" xmlns:serif="http://www.serif.com/" style="fill-rule:evenodd;clip-rule:evenodd;stroke-linejoin:round;stroke-miterlimit:2;"><rect id="Artboard1" x="0" y="0" width="207.64" height="50" style="fill:none;"/><clipPath id="_clip1"><rect x="0" y="0" width="207.64" height="50"/></clipPath><g clip-path="url(#_clip1)"><path d="M20.698,27.653c-0.14,-0.139 -0.366,-0.139 -0.506,0l-0.787,0.788c-0.14,0.14 -0.14,0.366 0,0.505l1.649,1.65c0.14,0.139 0.366,0.139 0.506,0l0.788,-0.788c0.139,-0.14 0.139,-0.365 0,-0.505l-1.65,-1.65Z" style="fill:#002265;fill-rule:nonzero;"/><path d="M48.045,27.653c-0.14,-0.139 -0.366,-0.139 -0.505,0l-1.65,1.65c-0.14,0.14 -0.14,0.365 0,0.505l0.788,0.788c0.139,0.139 0.366,0.139 0.505,0l1.649,-1.65c0.14,-0.139 0.14,-0.365 0,-0.505l-0.787,-0.788Z" style="fill:#002265;fill-rule:nonzero;"/><path d="M54.599,29.018c-3.277,0.415 -4.598,1.211 -5.443,2.056c-0.841,0.841 -1.637,2.162 -2.051,5.437c-0.044,0.351 -0.52,0.428 -0.675,0.11l-4.861,-10.005c-0.176,-0.363 0.29,-0.694 0.574,-0.409l1.568,1.568c0.139,0.139 0.366,0.139 0.505,0l1.65,-1.65c0.139,-0.14 0.139,-0.366 0,-0.505l-1.563,-1.562c-0.285,-0.285 0.046,-0.75 0.409,-0.574l9.996,4.859c0.318,0.155 0.241,0.631 -0.109,0.675m-28.08,-2.402l-4.862,10.005c-0.154,0.318 -0.63,0.241 -0.675,-0.11c-0.413,-3.275 -1.21,-4.596 -2.05,-5.437c-0.845,-0.845 -2.167,-1.641 -5.443,-2.056c-0.351,-0.044 -0.428,-0.52 -0.11,-0.675l9.997,-4.859c0.362,-0.176 0.693,0.289 0.408,0.574l-1.562,1.562c-0.139,0.139 -0.139,0.365 0,0.505l1.649,1.65c0.14,0.139 0.366,0.139 0.505,0l1.569,-1.568c0.285,-0.285 0.749,0.046 0.574,0.409m41.366,4.751l-31.679,-15.406l-0.007,-0.008l5.107,-5.108c0.304,-0.304 0.686,-0.516 1.105,-0.612l1.389,-0.322c0.505,-0.117 0.969,-0.374 1.336,-0.742l2.883,-2.882c0.298,-0.298 0.302,-0.776 0,-1.078c-0.298,-0.297 -0.78,-0.297 -1.077,0l-1.831,1.831c0.297,-0.296 0.301,-0.775 0,-1.077c-0.298,-0.297 -0.781,-0.297 -1.077,0c0.296,-0.297 0.301,-0.776 0,-1.077c-0.298,-0.298 -0.781,-0.298 -1.079,0l2.587,-2.586c0.297,-0.297 0.301,-0.775 0,-1.077c-0.298,-0.297 -0.781,-0.297 -1.078,0l-3.637,3.637c-0.366,0.367 -0.625,0.832 -0.737,1.34l-0.324,1.389c-0.098,0.416 -0.31,0.796 -0.612,1.099l-5.11,5.11l-5.11,-5.11c-0.302,-0.303 -0.514,-0.683 -0.611,-1.099l-0.326,-1.389c-0.112,-0.508 -0.37,-0.973 -0.737,-1.34l-3.636,-3.637c-0.298,-0.297 -0.78,-0.297 -1.078,0c-0.301,0.302 -0.297,0.78 0,1.077l2.586,2.586c-0.298,-0.298 -0.78,-0.298 -1.078,0c-0.301,0.301 -0.297,0.78 0,1.077c-0.297,-0.297 -0.78,-0.297 -1.077,0c-0.302,0.302 -0.297,0.781 0,1.077l-1.831,-1.831c-0.298,-0.297 -0.78,-0.297 -1.078,0c-0.301,0.302 -0.297,0.78 0,1.078l2.883,2.882c0.367,0.368 0.831,0.625 1.337,0.742l1.389,0.322c0.418,0.096 0.801,0.308 1.105,0.612l5.107,5.108l-0.008,0.008l-31.679,15.406c-0.353,0.171 -0.212,0.704 0.18,0.677c4.264,-0.294 14.436,-0.773 16.395,1.184c1.955,1.955 1.474,12.126 1.179,16.391c-0.027,0.391 0.507,0.532 0.678,0.179l15.402,-31.682l0.008,-0.008l0.008,0.008l15.402,31.682c0.171,0.353 0.704,0.212 0.677,-0.179c-0.295,-4.265 -0.774,-14.436 1.18,-16.391c1.958,-1.957 12.131,-1.478 16.395,-1.184c0.392,0.027 0.532,-0.506 0.179,-0.677" style="fill:#002265;fill-rule:nonzero;"/><path d="M87.63,17.534c0,0.139 -0.056,0.273 -0.154,0.371c-0.099,0.099 -0.232,0.154 -0.371,0.154c-1.107,0 -3.67,0 -4.777,0c-0.139,0 -0.273,0.055 -0.371,0.154c-0.098,0.098 -0.154,0.232 -0.154,0.371c0,2.644 0,14.479 0,17.123c0,0.29 -0.235,0.525 -0.525,0.525l-3.257,0c-0.29,0 -0.525,-0.235 -0.525,-0.525l0,-17.123c0,-0.29 -0.235,-0.525 -0.525,-0.525c-1.112,0 -3.696,0 -4.808,0c-0.29,0 -0.525,-0.235 -0.525,-0.525c0,-0.732 0,-2.053 0,-2.786c0,-0.29 0.235,-0.525 0.525,-0.525l14.942,0c0.289,0 0.525,0.235 0.525,0.525l0,2.786Z" style="fill:#002265;fill-rule:nonzero;"/><path d="M85.496,21.036c0,-0.139 0.055,-0.272 0.154,-0.371c0.098,-0.098 0.232,-0.154 0.371,-0.154c0.784,0 2.253,0 3.038,0c0.139,0 0.272,0.056 0.371,0.154c0.098,0.099 0.153,0.232 0.153,0.371c0,2.396 0,12.276 0,14.671c0,0.139 -0.055,0.273 -0.153,0.371c-0.099,0.099 -0.232,0.154 -0.371,0.154c-0.785,0 -2.254,0 -3.038,0c-0.139,0 -0.273,-0.055 -0.371,-0.154c-0.099,-0.098 -0.154,-0.232 -0.154,-0.371c0,-2.395 0,-12.275 0,-14.671Z" style="fill:#002265;fill-rule:nonzero;"/><path d="M102.56,36.232c-0.139,0 -0.273,-0.055 -0.371,-0.154c-0.099,-0.098 -0.154,-0.232 -0.154,-0.371c0,-1.859 0,-8.023 0,-8.027c0,-1.446 -0.136,-2.473 -0.409,-3.081c-0.272,-0.608 -0.838,-0.912 -1.698,-0.912c-0.712,0 -1.289,0.194 -1.729,0.582c-0.416,0.366 -0.738,0.831 -0.967,1.395c-0.025,0.062 -0.038,0.128 -0.038,0.196c-0.001,0.905 -0.001,7.865 -0.001,9.847c0,0.29 -0.235,0.525 -0.525,0.525c-0.784,0 -2.253,0 -3.037,0c-0.14,0 -0.273,-0.055 -0.372,-0.154c-0.098,-0.098 -0.153,-0.232 -0.153,-0.371c0,-2.395 0,-12.275 0,-14.671c0,-0.29 0.235,-0.525 0.525,-0.525c0.625,0 1.657,0 2.231,0c0.245,0 0.458,0.17 0.512,0.409c0.118,0.517 0.311,1.37 0.365,1.605c0.008,0.036 0.04,0.062 0.077,0.062c0,0 0,0 0,0c0.039,0 0.076,-0.019 0.099,-0.051c0.476,-0.649 1.077,-1.22 1.803,-1.71c0.744,-0.503 1.703,-0.755 2.877,-0.755c1.006,0 1.829,0.205 2.468,0.613c0.639,0.409 1.137,1.096 1.494,2.06c0.482,-0.818 1.1,-1.468 1.855,-1.95c0.754,-0.482 1.666,-0.723 2.735,-0.723c0.88,0 1.63,0.105 2.248,0.315c0.618,0.209 1.121,0.571 1.509,1.084c0.388,0.514 0.676,1.2 0.865,2.06c0.189,0.859 0.283,1.949 0.283,3.27c0,0.003 0,6.924 0,8.907c0,0.139 -0.055,0.273 -0.154,0.371c-0.098,0.099 -0.232,0.154 -0.371,0.154c-0.784,0 -2.253,0 -3.038,0c-0.139,0 -0.272,-0.055 -0.371,-0.154c-0.098,-0.098 -0.154,-0.232 -0.154,-0.371c0,-1.9 0,-8.306 0,-8.31c0,-1.237 -0.131,-2.164 -0.393,-2.782c-0.262,-0.619 -0.843,-0.928 -1.745,-0.928c-0.733,0 -1.315,0.199 -1.745,0.597c-0.412,0.383 -0.723,0.901 -0.933,1.554c-0.017,0.052 -0.025,0.105 -0.025,0.16c-0.001,0.813 -0.001,7.733 -0.001,9.709c0,0.139 -0.055,0.273 -0.153,0.371c-0.099,0.099 -0.232,0.154 -0.372,0.154c-0.784,0 -2.253,0 -3.037,0Z" style="fill:#002265;fill-rule:nonzero;"/><path d="M129.734,34.578c0.055,0.283 0.097,0.562 -0.14,0.725c-0.574,0.37 -1.142,0.623 -1.998,0.897c-1.079,0.346 -2.402,0.472 -3.618,0.472c-2.536,0 -4.391,-0.739 -5.565,-2.216c-1.173,-1.478 -1.76,-3.506 -1.76,-6.084c0,-2.767 0.66,-4.842 1.98,-6.226c1.321,-1.383 3.176,-2.075 5.566,-2.075c0.796,0 1.572,0.105 2.326,0.315c0.755,0.209 1.426,0.555 2.013,1.037c0.586,0.482 1.058,1.132 1.414,1.95c0.357,0.817 0.535,1.834 0.535,3.049c0,0.441 -0.026,0.912 -0.078,1.415c-0.039,0.368 -0.091,0.746 -0.157,1.136c-0.043,0.252 -0.261,0.436 -0.517,0.436c-1.537,0 -6.679,0 -8.398,0c-0.151,0 -0.294,0.065 -0.394,0.178c-0.099,0.113 -0.146,0.264 -0.127,0.413c0.13,1.03 0.453,1.829 0.974,2.396c0.616,0.671 1.614,1.006 2.992,1.006c0.857,0 1.773,-0.167 2.478,-0.346c0.44,-0.112 1.087,-0.344 1.405,-0.441c0.263,-0.08 0.634,-0.034 0.697,0.233c0.142,0.601 0.243,1.062 0.372,1.73Zm-5.585,-11.237c-1.063,0 -1.85,0.32 -2.361,0.959c-0.407,0.51 -0.685,1.156 -0.834,1.939c-0.029,0.153 0.011,0.311 0.11,0.43c0.099,0.12 0.246,0.189 0.401,0.189c1.151,0.005 3.65,0.005 4.717,0.005c0.14,0 0.274,-0.056 0.373,-0.155c0.098,-0.099 0.153,-0.233 0.152,-0.373c-0.003,-0.878 -0.182,-1.572 -0.54,-2.082c-0.428,-0.608 -1.1,-0.912 -2.018,-0.912Z" style="fill:#002265;fill-rule:nonzero;"/><path d="M132.3,14.748c0,-0.29 0.235,-0.525 0.525,-0.525l11.829,0c0.158,0 0.309,0.072 0.408,0.196c0.1,0.123 0.138,0.285 0.105,0.441c-0.172,0.79 -0.417,2.116 -0.563,2.786c-0.052,0.241 -0.266,0.413 -0.513,0.413l-6.958,0c-0.14,0 -0.273,0.055 -0.371,0.154c-0.099,0.098 -0.154,0.232 -0.154,0.371c0,0.96 0,2.988 0,3.948c0,0.14 0.055,0.273 0.154,0.372c0.098,0.098 0.231,0.153 0.371,0.153c0.997,0 3.16,0 4.239,0c0.157,0 0.306,0.071 0.406,0.192c0.1,0.122 0.14,0.281 0.109,0.435c-0.155,0.786 -0.418,2.111 -0.551,2.786c-0.049,0.246 -0.265,0.423 -0.515,0.423c-0.855,0 -2.762,0 -3.688,0c-0.14,0 -0.273,0.056 -0.371,0.154c-0.099,0.099 -0.154,0.232 -0.154,0.371c0,1.639 0,6.65 0,8.289c0,0.139 -0.056,0.273 -0.154,0.371c-0.098,0.099 -0.232,0.154 -0.371,0.154c-0.829,0 -2.429,0 -3.258,0c-0.29,0 -0.525,-0.235 -0.525,-0.525l0,-20.959Z" style="fill:#002265;fill-rule:nonzero;"/><path d="M142.577,28.372c0,-2.662 0.65,-4.711 1.95,-6.147c1.299,-1.436 3.123,-2.154 5.471,-2.154c1.257,0 2.347,0.199 3.27,0.598c0.922,0.398 1.687,0.959 2.295,1.682c0.608,0.723 1.064,1.598 1.367,2.625c0.304,1.027 0.456,2.159 0.456,3.396c0,2.662 -0.644,4.711 -1.933,6.147c-1.289,1.435 -3.108,2.153 -5.455,2.153c-1.258,0 -2.348,-0.199 -3.27,-0.597c-0.923,-0.398 -1.693,-0.959 -2.311,-1.682c-0.619,-0.723 -1.08,-1.598 -1.384,-2.626c-0.304,-1.027 -0.456,-2.159 -0.456,-3.395Zm4.214,0c0,0.691 0.062,1.331 0.188,1.918c0.126,0.587 0.315,1.1 0.566,1.54c0.252,0.441 0.582,0.781 0.991,1.022c0.408,0.241 0.896,0.362 1.462,0.362c1.069,0 1.865,-0.388 2.389,-1.164c0.524,-0.775 0.786,-2.001 0.786,-3.678c0,-1.447 -0.241,-2.615 -0.723,-3.506c-0.482,-0.891 -1.3,-1.336 -2.452,-1.336c-1.007,0 -1.793,0.377 -2.359,1.132c-0.565,0.754 -0.848,1.991 -0.848,3.71Z" style="fill:#002265;fill-rule:nonzero;"/><path d="M167.932,22.938c-0.043,0.233 -0.239,0.408 -0.476,0.427c-0.47,0.033 -0.847,0.086 -0.996,0.123c-0.96,0.238 -1.864,0.707 -2.356,1.095c-0.471,0.371 -0.793,0.842 -0.967,1.414c-0.015,0.049 -0.023,0.099 -0.023,0.15c-0.001,0.771 -0.001,7.598 -0.001,9.56c0,0.139 -0.055,0.273 -0.153,0.371c-0.099,0.099 -0.232,0.154 -0.372,0.154c-0.784,0 -2.253,0 -3.037,0c-0.139,0 -0.273,-0.055 -0.371,-0.154c-0.099,-0.098 -0.154,-0.232 -0.154,-0.371c0,-2.395 0,-12.275 0,-14.671c0,-0.29 0.235,-0.525 0.525,-0.525l2.232,0c0.245,0 0.457,0.17 0.511,0.409c0.118,0.517 0.312,1.37 0.365,1.605c0.008,0.036 0.04,0.062 0.077,0.062c0,0 0.001,0 0.001,0c0.038,0 0.072,-0.022 0.088,-0.057c0.354,-0.748 0.827,-1.327 1.42,-1.736c0.608,-0.419 1.321,-0.628 2.138,-0.628c0.424,0 0.98,0.069 1.531,0.208c0.266,0.069 0.433,0.332 0.383,0.603c-0.101,0.546 -0.268,1.443 -0.365,1.961Z" style="fill:#002265;fill-rule:nonzero;"/><path d="M179.936,25.09c0.042,-0.212 0.273,-0.334 0.489,-0.334l4.697,0c0.29,0 0.525,0.235 0.525,0.525c0,1.809 0,7.742 0,9.035c0,0.16 -0.074,0.312 -0.2,0.412c-0.839,0.65 -1.826,1.131 -2.96,1.441c-1.226,0.336 -2.437,0.503 -3.632,0.503c-1.404,0 -2.709,-0.22 -3.914,-0.66c-1.205,-0.44 -2.248,-1.127 -3.129,-2.059c-0.88,-0.933 -1.572,-2.123 -2.075,-3.569c-0.503,-1.446 -0.754,-3.165 -0.754,-5.156c0,-2.076 0.298,-3.841 0.896,-5.298c0.597,-1.457 1.383,-2.641 2.358,-3.553c0.975,-0.912 2.07,-1.572 3.286,-1.981c1.215,-0.409 2.452,-0.613 3.71,-0.613c1.257,0 1.486,0.05 2.659,0.26c0.68,0.121 1.71,0.431 2.278,0.691c0.26,0.12 0.364,0.431 0.314,0.713c-0.106,0.606 -0.364,1.833 -0.552,2.49c-0.093,0.322 -0.453,0.387 -0.71,0.302c-0.19,-0.062 -1.079,-0.456 -1.856,-0.539c-0.656,-0.07 -0.656,-0.081 -1.662,-0.081c-0.901,0 -1.729,0.136 -2.484,0.409c-0.754,0.272 -1.409,0.717 -1.965,1.336c-0.555,0.618 -0.985,1.409 -1.289,2.374c-0.304,0.964 -0.456,2.138 -0.456,3.521c0,1.321 0.147,2.458 0.441,3.411c0.293,0.954 0.702,1.74 1.226,2.359c0.524,0.618 1.137,1.074 1.839,1.367c0.702,0.294 1.452,0.44 2.248,0.44c0.545,0 1.08,-0.068 1.604,-0.204c0.411,-0.107 0.77,-0.255 1.078,-0.446c0.149,-0.096 0.24,-0.262 0.24,-0.439c0.002,-0.702 0.002,-2.58 0.002,-3.498c0,-0.287 -0.232,-0.521 -0.519,-0.524c-0.549,-0.006 -1.032,-0.015 -1.658,-0.022c-0.172,-0.002 -0.333,-0.088 -0.43,-0.231c-0.096,-0.143 -0.088,-0.316 -0.054,-0.485c0.147,-0.712 0.283,-1.267 0.409,-1.897Z" style="fill:#002265;fill-rule:nonzero;"/><path d="M187.46,21.036c0,-0.139 0.055,-0.272 0.154,-0.371c0.098,-0.098 0.232,-0.154 0.371,-0.154c0.784,0 2.253,0 3.038,0c0.139,0 0.272,0.056 0.371,0.154c0.098,0.099 0.154,0.232 0.154,0.371c0,2.396 0,12.276 0,14.671c0,0.139 -0.056,0.273 -0.154,0.371c-0.099,0.099 -0.232,0.154 -0.371,0.154c-0.785,0 -2.254,0 -3.038,0c-0.139,0 -0.273,-0.055 -0.371,-0.154c-0.099,-0.098 -0.154,-0.232 -0.154,-0.371c0,-2.395 0,-12.275 0,-14.671Z" style="fill:#002265;fill-rule:nonzero;"/><path d="M207.203,36.232c0,2.285 -0.619,3.967 -1.855,5.047c-1.237,1.079 -2.966,1.619 -5.188,1.619c-1.509,0 -2.699,-0.105 -3.569,-0.315c-0.538,-0.129 -0.636,-0.189 -1.01,-0.326c-0.148,-0.059 -0.224,-0.142 -0.27,-0.294c-0.046,-0.152 -0.001,-0.332 0.031,-0.487c0.179,-0.85 0.241,-1.239 0.438,-2.194c0.047,-0.229 0.352,-0.278 0.575,-0.205c0.048,0.015 0.361,0.102 0.451,0.129c0.64,0.188 1.782,0.328 2.725,0.328c1.425,0 2.395,-0.31 2.908,-0.928c0.514,-0.618 0.771,-1.483 0.771,-2.594c0,-0.001 0,-0.721 0,-0.942c0,-0.017 -0.007,-0.033 -0.019,-0.045c-0.012,-0.012 -0.028,-0.019 -0.045,-0.019c0,0 0,0 0,0c-0.039,0 -0.076,0.018 -0.1,0.049c-0.74,0.953 -2.027,1.429 -3.861,1.429c-2.033,0 -3.548,-0.629 -4.543,-1.887c-0.996,-1.257 -1.494,-3.228 -1.494,-5.911c0,-2.809 0.671,-4.936 2.013,-6.382c1.341,-1.447 3.29,-2.17 5.848,-2.17c1.341,0 2.541,0.094 3.6,0.283c0.88,0.157 1.626,0.335 2.238,0.536c0.212,0.072 0.355,0.272 0.355,0.496c0.001,2.327 0.001,14.778 0.001,14.783Zm-6.917,-3.018c0.796,0 1.409,-0.178 1.839,-0.535c0.412,-0.342 0.733,-0.847 0.962,-1.517c0.018,-0.055 0.028,-0.112 0.028,-0.169c0,-0.677 0,-5.288 0,-6.628c0,-0.224 -0.142,-0.424 -0.354,-0.496c-0.583,-0.184 -1.271,-0.276 -2.067,-0.276c-1.048,0 -1.865,0.393 -2.452,1.179c-0.587,0.786 -0.881,2.038 -0.881,3.757c0,1.53 0.252,2.693 0.755,3.49c0.503,0.797 1.226,1.195 2.17,1.195Z" style="fill:#002265;fill-rule:nonzero;"/></g></svg>